<?xml version="1.0" encoding="UTF-8" standalone="no"?>
<!DOCTYPE svg PUBLIC "-//W3C//DTD SVG 1.1//EN" "http://www.w3.org/Graphics/SVG/1.1/DTD/svg11.dtd">
<svg xmlns="http://www.w3.org/2000/svg" version="1.1" viewBox="0 0 512 512">
<path fill="#ededed" d="
  M 512.00 32.31
  L 512.00 35.06
  Q 510.91 48.52 500.81 58.56
  Q 459.87 99.28 303.35 256.15
  A 0.49 0.49 0.0 0 0 303.35 256.85
  Q 446.64 399.68 502.81 456.44
  Q 511.21 464.93 512.00 478.06
  L 512.00 480.31
  Q 509.29 506.34 483.94 512.00
  L 473.44 512.00
  Q 467.39 510.80 462.20 507.81
  Q 458.63 505.75 453.11 500.25
  Q 355.05 402.61 256.64 304.01
  A 0.91 0.91 0.0 0 0 255.36 304.01
  Q 156.81 402.75 58.60 500.54
  Q 53.15 505.97 49.60 507.98
  Q 44.45 510.91 38.44 512.00
  L 27.94 512.00
  Q 3.10 506.37 0.00 480.94
  L 0.00 477.19
  Q 0.93 467.66 6.03 460.31
  Q 7.63 457.99 17.99 447.64
  Q 113.34 352.29 208.71 256.91
  A 0.57 0.57 0.0 0 0 208.71 256.09
  Q 110.44 157.99 12.84 59.98
  Q 6.13 53.25 3.90 48.99
  Q 0.53 42.54 0.00 34.94
  L 0.00 31.44
  Q 1.51 16.46 12.06 8.06
  Q 22.49 -0.24 35.25 0.50
  Q 43.36 0.97 50.17 5.15
  Q 53.66 7.29 61.60 15.21
  Q 158.84 112.06 255.74 209.24
  A 0.47 0.46 -44.6 0 0 256.39 209.24
  Q 356.44 109.19 456.44 9.19
  Q 460.56 5.06 466.62 2.75
  Q 472.19 0.62 478.23 0.49
  Q 490.48 0.21 499.94 8.06
  Q 510.88 17.15 512.00 32.31
  Z"
/>
</svg>
