<?xml version="1.0" encoding="UTF-8" standalone="no"?>
<!DOCTYPE svg PUBLIC "-//W3C//DTD SVG 1.1//EN" "http://www.w3.org/Graphics/SVG/1.1/DTD/svg11.dtd">
<svg xmlns="http://www.w3.org/2000/svg" version="1.1" viewBox="0 0 1539 536">
<path stroke="#fcfeff" stroke-opacity="0.976" stroke-width="2.00" fill="none" stroke-linecap="butt" vector-effect="non-scaling-stroke" d="
  M 1145.68 415.75
  Q 1145.80 274.25 1145.81 132.75
  Q 1145.81 127.87 1145.29 132.75"
/>
<path fill="#ffffff" d="
  M 63.19 536.00
  L 3.52 535.95
  L 148.67 9.17
  A 1.26 1.25 7.5 0 1 149.88 8.25
  L 207.99 8.25
  A 0.52 0.52 -82.3 0 1 208.49 8.91
  L 63.19 536.00
  Z"
/>
<path fill="#ffffff" d="
  M 1379.04 437.25
  Q 1380.02 436.31 1380.71 437.25
  L 1410.78 485.47
  A 0.57 0.57 53.0 0 1 1410.68 486.20
  Q 1403.66 492.38 1395.85 497.55
  Q 1356.00 523.91 1309.50 529.50
  Q 1303.40 530.23 1295.83 530.19
  Q 1290.84 530.16 1282.16 529.88
  Q 1249.64 528.87 1220.50 519.00
  Q 1210.79 515.71 1198.36 508.56
  Q 1161.10 487.12 1149.68 445.52
  Q 1145.66 430.89 1145.68 415.75
  Q 1145.80 274.25 1145.81 132.75
  Q 1145.81 127.87 1145.29 132.75
  Q 1144.46 101.99 1157.77 75.10
  Q 1162.30 65.95 1168.36 58.17
  Q 1186.96 34.29 1215.69 23.44
  Q 1239.79 14.33 1266.50 12.81
  Q 1293.65 11.27 1320.51 15.44
  Q 1354.79 20.75 1385.26 37.22
  Q 1394.13 42.01 1402.31 48.16
  A 1.08 1.07 -72.2 0 1 1402.75 49.03
  L 1402.75 161.57
  A 0.68 0.68 -0.1 0 1 1402.07 162.25
  L 1339.95 162.19
  A 0.71 0.70 90.0 0 1 1339.25 161.48
  L 1339.25 84.14
  A 0.77 0.77 9.6 0 0 1338.73 83.41
  Q 1323.33 78.19 1308.11 74.96
  Q 1285.06 70.06 1261.77 73.61
  Q 1244.56 76.23 1232.31 86.31
  Q 1223.87 93.26 1218.93 104.86
  Q 1213.91 116.67 1213.50 130.00
  Q 1213.17 140.57 1213.18 147.00
  Q 1213.25 274.50 1213.41 402.00
  Q 1213.42 404.75 1213.40 407.50
  Q 1213.19 436.65 1235.31 453.69
  Q 1243.87 460.28 1256.29 464.38
  Q 1272.19 469.62 1288.75 470.27
  Q 1298.56 470.66 1308.69 469.10
  Q 1332.62 465.43 1355.56 453.06
  Q 1369.96 445.30 1379.04 437.25
  Z"
/>
<path fill="#ffffff" d="
  M 357.40 129.81
  Q 357.31 131.79 357.75 136.50
  Q 360.36 164.73 362.49 193.00
  Q 363.25 203.12 363.67 213.26
  Q 364.00 221.26 364.00 233.25
  Q 364.00 373.75 363.88 514.25
  Q 363.87 518.13 364.26 522.07
  A 1.08 1.08 -2.7 0 1 363.18 523.25
  L 296.88 523.25
  A 0.88 0.88 0.0 0 1 296.00 522.37
  L 296.00 19.27
  A 0.52 0.52 -90.0 0 1 296.52 18.75
  L 376.99 18.75
  A 0.70 0.69 -9.3 0 1 377.65 19.22
  L 458.70 246.11
  Q 459.12 247.28 459.55 246.11
  L 542.14 19.28
  A 0.73 0.71 9.7 0 1 542.82 18.81
  L 621.91 18.81
  A 0.60 0.59 -90.0 0 1 622.50 19.41
  L 622.50 522.59
  A 0.66 0.66 0.0 0 1 621.84 523.25
  L 555.44 523.25
  A 0.69 0.69 0.0 0 1 554.75 522.56
  Q 554.75 373.52 554.75 225.01
  Q 554.75 214.49 555.29 205.00
  Q 557.37 168.32 561.00 131.73
  Q 561.46 127.12 559.99 131.52
  Q 547.36 169.49 534.19 207.94
  Q 530.12 219.80 520.40 245.23
  Q 516.80 254.63 513.44 263.97
  Q 498.89 304.45 483.59 344.29
  A 1.50 1.50 10.5 0 1 482.19 345.25
  L 434.57 345.25
  A 1.04 1.03 -10.2 0 1 433.60 344.58
  Q 422.10 314.10 411.44 283.06
  Q 404.07 261.61 385.04 210.31
  Q 381.54 200.86 378.38 191.45
  Q 368.02 160.61 357.60 129.78
  Q 357.43 129.28 357.40 129.81
  Z"
/>
<path fill="#ffffff" d="
  M 788.24 132.01
  Q 786.74 127.44 787.20 132.23
  Q 789.65 157.60 791.50 182.50
  Q 793.83 213.76 793.85 231.75
  Q 794.00 376.63 794.00 522.48
  A 0.71 0.70 90.0 0 1 793.30 523.19
  L 726.56 523.25
  A 0.81 0.81 0.0 0 1 725.75 522.44
  L 725.75 19.25
  A 0.50 0.50 0.0 0 1 726.25 18.75
  L 806.74 18.75
  A 0.93 0.92 -9.9 0 1 807.61 19.36
  L 888.68 246.32
  Q 888.98 247.17 889.29 246.33
  L 971.89 19.28
  A 0.73 0.71 9.7 0 1 972.57 18.81
  L 1051.68 18.81
  A 0.51 0.49 -0.0 0 1 1052.19 19.30
  L 1052.25 522.75
  A 0.50 0.50 0.0 0 1 1051.75 523.25
  L 985.20 523.25
  A 0.51 0.51 0.0 0 1 984.69 522.74
  Q 984.80 375.34 984.75 228.25
  Q 984.74 207.14 985.40 197.99
  Q 987.82 164.48 990.92 131.02
  Q 991.00 130.14 990.77 129.97
  A 0.68 0.32 -67.9 0 0 990.15 130.54
  Q 984.27 148.29 978.41 166.05
  Q 965.77 204.45 951.39 242.22
  Q 947.48 252.52 944.43 260.97
  Q 929.22 303.09 913.24 344.81
  A 0.69 0.69 -79.4 0 1 912.60 345.25
  L 864.31 345.19
  A 0.72 0.70 -9.9 0 1 863.64 344.73
  Q 855.07 322.72 851.81 313.19
  Q 837.33 270.77 821.59 228.79
  Q 817.64 218.27 814.75 210.00
  Q 800.79 170.15 788.24 132.01
  Z"
/>
<path fill="#f9fcfe" fill-opacity="0.953" d="
  M 1145.68 415.75
  Q 1145.25 408.82 1145.25 391.25
  Q 1145.22 262.00 1145.29 132.75
  Q 1145.81 127.87 1145.81 132.75
  Q 1145.80 274.25 1145.68 415.75
  Z"
/>
<rect fill="#ffffff" x="1468.75" y="448.00" width="64.76" height="75.26" rx="0.26"/>
</svg>
