<?xml version="1.0" encoding="UTF-8" standalone="no"?>
<!DOCTYPE svg PUBLIC "-//W3C//DTD SVG 1.1//EN" "http://www.w3.org/Graphics/SVG/1.1/DTD/svg11.dtd">
<svg xmlns="http://www.w3.org/2000/svg" version="1.1" viewBox="0 0 1364 262">
<path fill="#ffffff" d="
  M 1241.06 0.00
  L 1245.31 0.00
  Q 1246.87 1.87 1246.53 4.20
  A 0.87 0.85 83.8 0 1 1245.99 4.89
  L 1232.78 9.99
  A 0.65 0.61 65.2 0 1 1232.00 9.68
  L 1230.40 6.62
  A 0.52 0.52 -28.6 0 1 1230.61 5.92
  L 1241.06 0.00
  Z"
/>
<path fill="#ffffff" d="
  M 299.04 47.11
  L 401.48 83.74
  A 0.53 0.53 19.7 0 1 401.80 84.41
  L 340.33 256.55
  A 1.06 1.06 -70.3 0 1 338.98 257.19
  Q 319.23 250.18 300.67 243.65
  Q 300.59 243.62 299.84 243.30
  Q 298.08 242.54 298.36 244.93
  A 0.46 0.43 86.4 0 1 297.94 245.44
  Q 209.22 245.55 120.49 245.50
  Q 120.41 245.50 119.02 245.63
  Q 117.22 245.79 116.44 244.20
  A 0.55 0.51 66.3 0 0 115.79 243.92
  L 77.02 258.15
  A 0.57 0.56 -19.9 0 1 76.30 257.82
  L 12.65 86.22
  A 1.03 1.02 -20.5 0 1 13.26 84.90
  L 116.08 46.94
  A 1.09 1.05 -10.3 0 0 116.80 45.94
  L 116.76 6.33
  A 1.08 1.06 90.0 0 1 117.82 5.25
  L 297.79 5.31
  A 0.71 0.71 -90.0 0 1 298.50 6.02
  L 298.56 46.43
  A 0.72 0.72 -80.3 0 0 299.04 47.11
  Z
  M 287.98 16.98
  A 0.73 0.73 0.0 0 0 287.25 16.25
  L 128.01 16.25
  A 0.73 0.73 0.0 0 0 127.28 16.98
  L 127.28 190.76
  A 0.73 0.73 0.0 0 0 128.01 191.49
  L 287.25 191.49
  A 0.73 0.73 0.0 0 0 287.98 190.76
  L 287.98 16.98
  Z
  M 69.96 216.44
  L 116.59 199.24
  A 0.73 0.71 80.3 0 0 117.06 198.56
  L 116.94 56.21
  A 0.51 0.50 -10.2 0 0 116.26 55.74
  L 23.30 90.17
  A 0.72 0.72 0.0 0 0 22.88 91.09
  L 69.30 216.13
  A 0.52 0.51 69.6 0 0 69.96 216.44
  Z
  M 346.61 215.18
  L 391.40 89.54
  A 0.44 0.43 19.9 0 0 391.13 88.98
  L 299.73 56.24
  A 1.11 1.11 -80.2 0 0 298.25 57.29
  L 298.31 198.44
  A 0.72 0.71 9.9 0 0 298.79 199.11
  L 345.53 215.69
  A 0.85 0.84 19.4 0 0 346.61 215.18
  Z"
/>
<path fill="#ffffff" d="
  M 531.77 27.96
  Q 535.91 12.81 551.25 11.75
  Q 560.73 11.10 567.14 16.99
  Q 571.70 21.18 573.54 27.66
  Q 575.36 34.13 573.79 40.60
  Q 571.91 48.35 566.36 52.93
  Q 560.45 57.81 551.75 57.73
  Q 539.42 57.60 533.81 47.69
  Q 528.81 38.84 531.77 27.96
  Z
  M 538.94 33.44
  Q 538.55 39.78 541.11 44.77
  Q 543.20 48.84 546.86 50.79
  Q 551.08 53.04 555.69 51.69
  Q 561.66 49.94 564.19 44.69
  Q 567.40 38.02 566.16 30.87
  Q 565.29 25.86 562.72 22.59
  Q 559.63 18.65 554.57 17.75
  Q 550.43 17.02 547.07 18.49
  Q 543.37 20.11 541.31 24.03
  Q 539.28 27.88 538.94 33.44
  Z"
/>
<path fill="#ffffff" d="
  M 647.68 17.78
  Q 645.41 17.67 643.15 17.88
  Q 643.00 17.89 640.84 17.93
  Q 637.64 18.00 636.47 21.10
  A 1.11 0.94 -85.3 0 1 635.84 21.73
  Q 633.02 22.61 633.25 19.50
  Q 633.63 14.48 633.98 12.30
  A 0.54 0.54 6.9 0 1 634.56 11.85
  Q 651.88 13.21 669.90 11.88
  A 0.75 0.75 -3.0 0 1 670.70 12.60
  Q 670.81 15.35 670.95 18.31
  Q 670.96 18.43 671.21 20.16
  Q 671.56 22.67 668.54 21.62
  A 1.16 1.02 86.8 0 1 667.90 20.97
  Q 667.37 19.64 666.31 18.78
  Q 665.44 18.07 663.87 17.94
  Q 660.33 17.64 656.81 17.75
  A 0.64 0.64 90.0 0 0 656.19 18.37
  Q 655.69 34.41 656.25 50.25
  Q 656.34 52.78 658.68 53.82
  Q 659.07 53.99 661.39 54.17
  Q 663.62 54.33 662.85 56.96
  A 0.64 0.62 10.1 0 1 662.19 57.40
  Q 653.23 56.70 644.27 57.27
  Q 644.18 57.27 642.89 57.52
  Q 641.10 57.86 641.57 55.10
  A 1.04 1.04 -82.8 0 1 642.68 54.24
  Q 646.02 54.53 647.43 52.37
  Q 648.23 51.15 648.33 47.97
  Q 648.82 33.14 648.21 18.32
  A 0.56 0.56 0.6 0 0 647.68 17.78
  Z"
/>
<path fill="#ffffff" d="
  M 730.65 27.93
  Q 732.79 19.73 739.05 15.50
  Q 744.71 11.68 752.60 11.82
  Q 763.55 12.02 769.40 20.95
  Q 773.26 26.85 773.49 33.80
  Q 773.65 38.59 772.07 43.17
  Q 770.47 47.79 767.30 51.12
  Q 760.93 57.83 750.75 57.73
  Q 738.42 57.60 732.81 47.69
  Q 727.81 38.84 730.65 27.93
  Z
  M 737.90 37.64
  Q 738.36 43.71 742.06 47.94
  Q 745.60 51.98 751.05 52.04
  Q 754.90 52.09 758.06 50.26
  Q 761.45 48.30 763.19 44.69
  Q 766.73 37.31 764.90 29.70
  Q 763.53 23.96 759.96 20.75
  Q 755.69 16.91 749.33 17.65
  Q 747.12 17.91 745.30 18.83
  Q 743.18 19.90 741.94 21.44
  Q 739.21 24.81 738.34 29.24
  Q 737.56 33.25 737.90 37.64
  Z"
/>
<path fill="#ffffff" d="
  M 859.25 41.54
  Q 858.57 40.61 858.51 38.27
  L 876.18 38.22
  A 0.61 0.58 -4.4 0 1 876.78 38.71
  Q 877.35 42.06 875.30 41.81
  A 1.18 1.18 13.4 0 0 874.05 42.58
  Q 872.01 48.25 873.00 54.24
  A 0.97 0.97 76.9 0 1 872.33 55.32
  Q 862.73 58.35 853.52 57.34
  Q 845.75 56.49 840.78 51.56
  Q 836.22 47.04 834.79 39.81
  Q 833.22 31.86 836.56 24.31
  Q 840.85 14.62 852.10 12.49
  Q 862.47 10.54 872.02 14.49
  A 0.90 0.84 16.0 0 1 872.57 15.40
  L 871.63 22.08
  A 0.80 0.78 4.1 0 1 870.83 22.76
  L 868.81 22.72
  A 0.75 0.65 79.5 0 1 868.17 22.21
  Q 867.40 19.79 865.69 19.06
  Q 858.89 16.15 851.68 18.15
  Q 845.41 19.89 843.63 26.17
  Q 841.51 33.62 843.47 40.52
  Q 845.41 47.37 850.41 50.21
  Q 855.91 53.34 863.62 51.08
  A 2.30 2.28 -7.8 0 0 865.26 48.93
  Q 865.30 47.23 864.89 45.31
  Q 864.43 43.14 863.20 42.26
  Q 861.62 41.12 859.25 41.54
  Z"
/>
<path fill="#ffffff" d="
  M 1075.82 52.70
  Q 1077.04 54.35 1079.07 54.13
  Q 1082.11 53.80 1081.16 57.02
  A 0.62 0.62 -78.5 0 1 1080.51 57.45
  Q 1071.82 56.60 1063.13 57.44
  Q 1062.26 57.52 1061.89 57.37
  Q 1061.02 57.00 1061.75 55.75
  A 3.33 2.14 -73.4 0 1 1063.50 54.25
  Q 1066.24 53.57 1065.69 50.47
  Q 1064.77 45.19 1062.18 40.50
  A 0.85 0.81 75.4 0 0 1061.45 40.05
  L 1050.85 40.01
  A 0.81 0.78 -76.7 0 0 1050.12 40.48
  Q 1048.14 44.83 1046.91 49.22
  Q 1046.32 51.32 1046.53 52.33
  Q 1046.93 54.16 1049.20 54.30
  A 0.76 0.70 -6.7 0 1 1049.86 54.78
  Q 1050.93 57.88 1048.26 57.48
  Q 1046.31 57.19 1046.22 57.19
  Q 1039.39 56.82 1032.57 57.39
  A 0.63 0.59 -9.9 0 1 1031.91 56.96
  Q 1031.27 54.59 1033.19 54.12
  Q 1035.55 53.53 1035.69 53.46
  Q 1038.53 51.96 1039.75 49.00
  Q 1045.29 35.61 1053.39 14.52
  A 1.33 0.79 -81.8 0 1 1053.98 13.79
  L 1058.65 11.83
  A 0.80 0.68 68.7 0 1 1059.60 12.34
  Q 1065.40 27.99 1071.25 43.20
  Q 1071.28 43.29 1072.18 45.82
  Q 1073.49 49.52 1075.82 52.70
  Z
  M 1054.10 27.90
  Q 1052.84 31.16 1051.72 34.47
  A 0.36 0.36 -80.7 0 0 1052.06 34.95
  L 1059.76 35.00
  A 0.36 0.36 79.7 0 0 1060.09 34.51
  L 1056.10 23.78
  Q 1055.93 23.32 1055.74 23.78
  Q 1054.90 25.83 1054.10 27.90
  Z"
/>
<path fill="#ffffff" d="
  M 1348.74 53.23
  Q 1350.14 54.37 1352.70 54.33
  A 0.72 0.67 -9.5 0 1 1353.38 54.78
  Q 1353.75 55.88 1353.37 56.98
  A 0.68 0.60 10.9 0 1 1352.68 57.39
  Q 1345.34 56.80 1337.99 57.18
  Q 1337.85 57.19 1335.56 57.56
  Q 1332.94 57.98 1334.01 54.91
  A 0.77 0.73 7.3 0 1 1334.68 54.42
  Q 1338.02 54.21 1337.91 51.32
  Q 1337.88 50.45 1337.17 47.56
  Q 1336.29 43.96 1334.49 40.56
  A 1.04 1.04 76.3 0 0 1333.57 40.00
  L 1323.13 40.00
  A 0.80 0.79 11.9 0 0 1322.40 40.47
  Q 1320.09 45.58 1318.87 50.53
  Q 1318.10 53.62 1321.33 54.32
  A 0.93 0.91 -1.4 0 1 1322.02 54.96
  Q 1322.84 57.77 1320.99 57.55
  Q 1313.00 56.58 1305.00 57.44
  A 0.63 0.59 -11.0 0 1 1304.33 57.02
  Q 1304.00 55.89 1304.38 54.78
  A 0.82 0.74 4.6 0 1 1305.05 54.27
  Q 1309.99 53.70 1311.94 48.98
  Q 1318.98 31.97 1325.37 15.10
  A 2.30 1.40 -82.1 0 1 1326.39 13.85
  L 1330.94 11.88
  A 0.62 0.47 68.3 0 1 1331.62 12.29
  L 1345.82 49.20
  Q 1346.75 51.63 1348.74 53.23
  Z
  M 1326.31 27.89
  Q 1325.09 31.16 1323.97 34.47
  A 0.37 0.37 -80.9 0 0 1324.32 34.96
  L 1331.93 34.95
  A 0.37 0.36 80.1 0 0 1332.26 34.46
  L 1328.55 23.88
  Q 1328.29 23.15 1327.98 23.85
  Q 1327.06 25.89 1326.31 27.89
  Z"
/>
<path fill="#ffffff" d="
  M 455.24 53.51
  Q 456.34 54.34 458.75 54.23
  A 0.70 0.70 80.0 0 1 459.46 54.73
  Q 460.36 57.87 458.38 57.51
  Q 457.05 57.27 456.97 57.27
  Q 448.76 56.78 440.56 57.40
  A 0.67 0.66 -12.0 0 1 439.88 56.97
  Q 438.97 54.44 441.18 54.18
  Q 443.10 53.95 443.58 53.65
  Q 445.39 52.50 445.49 50.00
  Q 446.04 36.00 445.54 22.01
  Q 445.53 21.88 445.56 20.00
  Q 445.62 15.17 441.12 15.19
  A 1.26 1.26 86.1 0 1 439.87 14.10
  Q 439.54 11.77 440.69 12.02
  Q 441.80 12.27 441.86 12.27
  Q 455.83 12.74 470.93 12.21
  A 0.78 0.74 -0.4 0 1 471.74 12.97
  L 471.54 21.00
  A 0.73 0.73 -8.4 0 1 471.03 21.68
  Q 469.69 22.11 468.48 21.45
  A 0.95 0.73 -80.0 0 1 468.08 20.68
  Q 468.05 18.44 466.25 18.25
  Q 460.52 17.64 454.40 17.76
  A 0.92 0.89 -0.0 0 0 453.49 18.64
  L 453.42 30.31
  A 0.57 0.56 2.8 0 0 453.93 30.87
  Q 456.77 31.17 461.00 30.75
  Q 463.07 30.55 463.29 28.80
  A 1.13 0.82 83.7 0 1 463.73 28.03
  Q 464.81 27.41 466.04 27.81
  A 0.68 0.63 -78.7 0 1 466.46 28.49
  Q 466.03 33.50 466.35 38.51
  Q 466.48 40.55 463.64 39.05
  A 0.70 0.69 17.1 0 1 463.28 38.38
  Q 463.41 36.88 461.70 36.42
  Q 458.29 35.51 453.98 35.80
  A 0.76 0.73 -2.8 0 0 453.27 36.55
  L 453.58 50.42
  Q 453.62 52.28 455.24 53.51
  Z"
/>
<path fill="#ffffff" d="
  M 939.67 15.64
  L 937.05 15.20
  A 0.76 0.70 -0.8 0 1 936.43 14.64
  Q 935.86 11.84 937.33 12.12
  Q 938.09 12.27 938.20 12.27
  Q 949.37 12.84 952.50 12.50
  Q 959.65 11.72 965.19 14.31
  Q 970.08 16.60 971.07 21.46
  Q 971.90 25.50 969.93 29.85
  Q 967.52 35.15 962.00 38.08
  A 0.47 0.45 -30.4 0 0 961.82 38.73
  Q 964.79 43.44 969.19 48.56
  Q 973.27 53.32 979.19 54.24
  A 1.00 0.91 -6.9 0 1 979.92 54.76
  Q 981.32 57.63 978.51 57.62
  Q 976.79 57.61 975.99 57.72
  Q 967.94 58.89 963.06 52.69
  Q 959.13 47.68 954.57 39.88
  A 1.05 0.67 68.4 0 0 953.82 39.34
  L 950.55 39.38
  A 0.87 0.79 -89.6 0 0 949.77 40.23
  Q 949.65 46.14 950.39 50.98
  Q 950.95 54.68 954.76 54.31
  A 0.79 0.68 -14.3 0 1 955.51 54.68
  Q 956.08 55.79 955.64 56.98
  A 0.68 0.64 12.4 0 1 954.95 57.39
  Q 946.25 56.66 937.08 57.35
  A 0.66 0.65 84.0 0 1 936.38 56.78
  Q 936.06 54.21 937.55 54.20
  Q 938.39 54.20 938.44 54.19
  Q 941.85 53.62 942.00 50.00
  Q 942.59 35.25 941.94 18.89
  Q 941.82 15.99 939.67 15.64
  Z
  M 963.61 26.89
  Q 965.09 21.48 958.94 18.56
  Q 956.29 17.31 950.56 18.00
  A 0.59 0.57 -2.9 0 0 950.04 18.56
  L 949.75 31.94
  A 2.05 1.99 7.0 0 0 951.36 33.94
  Q 955.60 34.86 959.16 32.70
  Q 962.59 30.62 963.61 26.89
  Z"
/>
<path fill="#ffffff" d="
  M 1152.82 53.20
  A 2.55 2.55 65.4 0 0 1155.26 54.11
  Q 1158.69 53.49 1157.82 56.96
  A 0.62 0.59 9.0 0 1 1157.18 57.40
  Q 1147.87 56.72 1138.56 57.40
  A 0.67 0.66 -12.0 0 1 1137.88 56.97
  Q 1136.97 54.44 1139.18 54.18
  Q 1141.10 53.95 1141.58 53.65
  Q 1143.39 52.50 1143.49 50.00
  Q 1143.75 43.48 1143.50 20.50
  Q 1143.45 15.83 1139.64 15.31
  Q 1138.26 15.13 1138.00 14.78
  Q 1137.52 14.13 1137.89 12.71
  A 0.66 0.65 7.8 0 1 1138.54 12.23
  Q 1153.50 12.75 1168.77 12.22
  A 0.95 0.90 -0.0 0 1 1169.75 13.15
  L 1169.54 21.00
  A 0.73 0.73 -8.4 0 1 1169.03 21.68
  Q 1167.69 22.11 1166.48 21.45
  A 0.95 0.73 -80.0 0 1 1166.08 20.68
  Q 1166.05 18.46 1164.25 18.25
  Q 1158.52 17.58 1152.37 17.76
  A 0.90 0.90 -0.3 0 0 1151.50 18.64
  L 1151.24 30.32
  A 0.62 0.62 1.9 0 0 1151.83 30.95
  Q 1156.11 31.18 1159.44 30.70
  Q 1161.17 30.44 1161.30 28.81
  A 1.08 0.80 82.4 0 1 1161.73 28.03
  Q 1162.81 27.41 1164.04 27.81
  A 0.68 0.63 -78.7 0 1 1164.46 28.49
  Q 1164.03 33.50 1164.35 38.51
  Q 1164.48 40.55 1161.64 39.05
  A 0.70 0.69 17.1 0 1 1161.28 38.38
  Q 1161.41 36.88 1159.70 36.45
  Q 1156.04 35.52 1151.89 35.77
  A 0.68 0.67 89.1 0 0 1151.26 36.43
  Q 1151.11 43.01 1151.28 49.01
  Q 1151.35 51.38 1152.82 53.20
  Z"
/>
<path fill="#ffffff" d="
  M 1242.22 20.39
  Q 1241.55 35.08 1242.39 49.75
  Q 1242.53 52.10 1243.42 52.98
  Q 1244.62 54.18 1246.96 54.28
  A 0.81 0.80 80.7 0 1 1247.66 54.79
  Q 1249.05 58.27 1245.69 57.31
  Q 1243.06 56.56 1232.74 57.17
  Q 1232.61 57.18 1230.28 57.54
  Q 1227.36 57.99 1228.79 54.70
  A 0.79 0.71 11.0 0 1 1229.51 54.27
  Q 1234.12 54.36 1234.29 49.50
  Q 1234.65 39.58 1234.25 20.50
  Q 1234.14 15.33 1229.51 15.24
  A 0.93 0.75 -10.1 0 1 1228.74 14.82
  Q 1228.17 13.71 1228.61 12.52
  A 0.71 0.64 12.0 0 1 1229.32 12.11
  Q 1237.68 12.79 1246.06 12.21
  Q 1246.12 12.21 1246.82 12.11
  Q 1248.70 11.83 1247.41 14.77
  A 0.79 0.79 -79.0 0 1 1246.70 15.25
  Q 1244.17 15.29 1243.03 16.90
  Q 1242.34 17.88 1242.22 20.39
  Z"
/>
<path fill="#ffffff" d="
  M 846.06 183.99
  Q 855.31 199.92 856.75 217.25
  Q 857.17 222.32 855.31 227.35
  Q 853.62 231.93 850.89 233.68
  Q 848.13 235.46 844.74 234.40
  Q 842.32 233.65 839.96 231.13
  Q 833.94 224.72 831.81 215.69
  Q 828.37 201.07 828.64 186.48
  Q 828.78 178.71 830.21 166.55
  Q 832.60 146.20 838.53 126.51
  Q 840.72 119.21 843.98 112.34
  Q 847.67 104.56 853.31 100.31
  Q 857.21 97.38 862.29 97.63
  Q 866.00 97.81 868.11 99.73
  Q 870.61 102.00 870.70 106.00
  Q 870.80 110.54 869.62 114.92
  Q 866.79 125.43 862.03 135.23
  Q 853.20 153.40 841.72 170.03
  A 0.80 0.80 -42.5 0 0 841.68 170.87
  Q 845.75 177.95 852.38 182.41
  Q 855.88 184.77 858.67 184.84
  Q 862.34 184.95 865.41 182.16
  Q 867.36 180.38 868.98 178.30
  Q 869.53 177.58 870.01 177.18
  Q 872.57 175.03 871.45 178.46
  Q 871.22 179.16 870.76 179.82
  Q 867.30 184.86 863.50 187.50
  Q 858.56 190.92 853.06 188.68
  Q 851.50 188.04 849.30 186.33
  Q 847.74 185.12 846.20 183.88
  Q 845.82 183.57 846.06 183.99
  Z
  M 855.09 105.11
  Q 851.52 109.82 849.38 115.34
  Q 840.24 138.97 837.34 165.03
  Q 836.96 168.51 839.04 165.70
  Q 853.88 145.65 863.31 120.56
  Q 866.13 113.07 865.69 105.97
  Q 865.52 103.36 864.81 102.16
  Q 863.48 99.94 860.44 100.94
  Q 857.54 101.89 855.09 105.11
  Z
  M 836.21 175.48
  Q 833.84 199.10 840.77 221.50
  Q 842.19 226.09 845.42 230.42
  Q 846.63 232.03 848.21 230.77
  Q 851.44 228.18 851.30 223.18
  Q 851.07 215.15 848.99 207.39
  Q 844.59 190.89 836.66 175.39
  Q 836.29 174.67 836.21 175.48
  Z"
/>
<path fill="#ffffff" d="
  M 1183.30 184.24
  Q 1190.89 197.69 1193.19 212.84
  Q 1194.00 218.11 1193.63 221.70
  Q 1193.14 226.47 1191.06 230.31
  Q 1188.42 235.21 1183.74 234.74
  Q 1180.44 234.41 1177.10 231.26
  Q 1172.34 226.77 1170.31 220.44
  Q 1165.68 206.00 1165.59 190.74
  Q 1165.54 183.26 1166.74 170.79
  Q 1169.15 145.77 1177.07 121.82
  Q 1180.76 110.62 1187.69 102.69
  Q 1191.66 98.14 1197.58 97.66
  Q 1202.15 97.28 1204.94 99.61
  Q 1208.26 102.38 1207.75 107.75
  Q 1207.06 115.03 1204.59 122.08
  Q 1203.10 126.35 1198.79 135.46
  Q 1190.22 153.57 1178.80 169.72
  A 1.25 1.23 -44.1 0 0 1178.77 171.09
  Q 1182.37 176.72 1186.95 180.63
  Q 1191.02 184.11 1194.23 184.71
  Q 1198.88 185.59 1202.90 181.65
  Q 1205.06 179.54 1206.90 177.16
  Q 1208.19 175.49 1208.84 177.03
  A 1.18 0.99 -45.5 0 1 1208.77 177.95
  Q 1205.98 183.16 1201.32 186.83
  Q 1195.36 191.53 1188.56 187.94
  Q 1187.18 187.21 1183.45 184.13
  Q 1183.07 183.82 1183.30 184.24
  Z
  M 1192.07 105.09
  Q 1188.50 109.81 1186.37 115.33
  Q 1176.90 139.84 1174.25 166.00
  Q 1173.95 168.97 1175.81 166.31
  Q 1187.69 149.37 1196.46 130.63
  Q 1200.41 122.19 1202.40 113.08
  Q 1203.41 108.45 1202.38 103.82
  Q 1201.52 99.92 1198.00 100.75
  Q 1194.78 101.51 1192.07 105.09
  Z
  M 1173.18 175.79
  Q 1170.84 199.10 1177.81 221.48
  Q 1179.18 225.90 1182.16 230.19
  Q 1183.45 232.05 1185.31 230.75
  Q 1187.61 229.14 1187.92 225.49
  Q 1188.52 218.50 1186.94 211.66
  Q 1182.61 192.86 1173.81 175.67
  Q 1173.29 174.67 1173.18 175.79
  Z"
/>
<path fill="#ffffff" d="
  M 926.94 155.07
  L 918.06 154.74
  A 0.70 0.68 -5.4 0 1 917.41 154.22
  Q 917.11 152.92 918.64 152.91
  Q 919.60 152.90 919.75 152.89
  Q 922.93 152.62 926.76 152.78
  A 0.96 0.95 3.1 0 0 927.76 151.89
  L 928.79 136.06
  Q 928.93 133.81 931.02 133.06
  Q 932.44 132.55 933.16 134.02
  Q 933.50 134.73 933.50 136.05
  Q 933.53 144.06 933.44 152.06
  A 0.50 0.49 0.0 0 0 933.94 152.55
  L 945.18 152.55
  A 0.74 0.69 -8.8 0 1 945.87 153.02
  Q 946.74 155.61 943.25 155.25
  Q 941.64 155.08 934.06 155.30
  A 0.55 0.55 -88.3 0 0 933.52 155.81
  Q 932.16 170.38 932.90 185.01
  Q 933.24 191.62 936.25 197.50
  Q 937.35 199.65 935.25 198.75
  Q 932.49 197.57 931.15 194.90
  Q 929.02 190.67 928.35 185.99
  Q 926.78 175.20 927.25 165.75
  Q 927.57 159.33 927.45 155.55
  A 0.53 0.49 0.7 0 0 926.94 155.07
  Z"
/>
<path fill="#ffffff" d="
  M 1228.19 156.19
  Q 1229.68 153.62 1232.03 155.25
  A 0.98 0.97 18.2 0 1 1232.45 156.07
  Q 1232.41 158.83 1229.95 160.05
  A 1.25 1.17 -46.9 0 1 1229.03 160.11
  Q 1226.44 159.20 1228.19 156.19
  Z"
/>
<path fill="#ffffff" d="
  M 508.72 170.46
  Q 509.22 171.67 509.68 170.45
  Q 511.94 164.54 516.18 160.08
  Q 518.87 157.25 521.70 156.87
  Q 526.75 156.21 526.80 163.25
  Q 526.82 167.49 526.11 171.67
  Q 525.15 177.39 525.02 183.17
  Q 524.97 185.28 525.58 186.21
  Q 526.78 188.03 529.56 186.01
  Q 535.31 181.83 540.81 177.31
  Q 542.29 176.09 541.56 178.06
  Q 540.88 179.90 539.50 181.24
  Q 538.04 182.65 537.97 182.73
  Q 533.05 188.10 529.50 190.00
  Q 524.08 192.90 521.20 189.57
  Q 519.43 187.52 519.27 182.98
  Q 519.08 177.47 519.94 171.99
  Q 520.56 168.00 520.00 164.00
  Q 519.58 160.98 517.44 163.69
  Q 515.35 166.33 514.21 169.53
  Q 512.10 175.43 510.25 181.42
  Q 510.23 181.48 509.85 183.10
  Q 509.07 186.41 505.42 186.02
  A 1.88 1.81 2.4 0 1 503.75 184.27
  L 503.44 174.82
  A 0.82 0.58 -86.4 0 0 502.99 174.09
  Q 502.31 173.92 501.81 174.81
  Q 499.06 179.77 497.75 183.50
  Q 496.79 186.25 495.38 188.37
  Q 494.23 190.11 492.59 190.31
  Q 489.87 190.65 489.71 187.00
  Q 489.39 179.87 489.49 172.74
  A 1.36 1.15 71.0 0 1 489.83 171.87
  Q 491.36 170.25 493.51 171.32
  A 1.26 1.22 -86.0 0 1 494.11 172.03
  Q 494.56 173.42 494.75 176.00
  Q 494.83 177.10 495.59 176.68
  Q 495.90 176.51 496.14 176.06
  Q 497.90 172.78 500.22 169.92
  Q 502.11 167.58 504.12 167.29
  Q 507.24 166.84 508.72 170.46
  Z"
/>
<path fill="#ffffff" d="
  M 725.04 174.54
  Q 726.10 174.09 726.81 172.81
  Q 729.10 168.71 733.21 166.48
  Q 736.19 164.86 738.64 165.24
  Q 741.97 165.75 743.25 169.50
  Q 744.06 171.86 744.60 175.04
  Q 744.62 175.15 744.82 176.96
  Q 745.26 180.70 747.86 182.78
  Q 749.96 184.45 753.54 184.12
  Q 763.16 183.21 770.16 176.16
  Q 772.29 174.01 775.07 172.81
  Q 776.60 172.15 775.94 173.68
  Q 775.36 175.04 774.38 176.14
  Q 765.33 186.37 753.25 189.00
  Q 746.47 190.48 741.73 185.96
  Q 739.49 183.83 738.11 180.43
  Q 736.93 177.53 736.25 174.00
  Q 735.36 169.38 732.68 171.66
  Q 731.78 172.42 730.69 174.16
  Q 727.24 179.68 726.50 183.75
  Q 725.84 187.40 724.38 189.69
  Q 723.41 191.22 721.91 191.27
  Q 720.35 191.32 719.64 189.91
  Q 719.26 189.14 719.23 187.53
  Q 719.11 181.11 719.01 174.69
  Q 719.01 174.56 718.86 172.83
  Q 718.60 169.98 721.31 170.05
  Q 722.97 170.10 723.85 171.19
  Q 724.81 172.37 724.63 174.20
  A 0.32 0.30 82.5 0 0 725.04 174.54
  Z"
/>
<path fill="#ffffff" d="
  M 1050.80 168.53
  A 2.98 2.96 -74.1 0 1 1053.08 167.25
  Q 1058.26 166.93 1055.93 171.87
  Q 1055.23 173.37 1055.03 174.76
  A 0.92 0.92 -5.0 0 0 1056.23 175.76
  Q 1059.05 174.82 1061.49 174.97
  Q 1063.62 175.10 1063.75 177.23
  Q 1064.06 182.52 1063.15 187.73
  Q 1062.44 191.81 1064.99 191.41
  Q 1066.21 191.21 1067.55 189.89
  Q 1072.87 184.65 1075.54 177.56
  Q 1075.82 176.82 1076.29 177.02
  A 0.76 0.55 -75.7 0 1 1076.60 177.80
  Q 1075.30 185.15 1071.31 190.56
  Q 1069.07 193.60 1065.45 194.97
  Q 1062.50 196.08 1060.37 195.24
  Q 1057.48 194.10 1057.51 190.00
  Q 1057.54 185.08 1058.58 179.83
  A 1.13 1.12 -85.1 0 0 1057.45 178.48
  Q 1054.66 178.55 1052.86 178.21
  Q 1049.67 177.62 1049.42 174.87
  Q 1049.29 173.35 1049.54 171.61
  Q 1049.77 170.00 1050.80 168.53
  Z"
/>
<path fill="#ffffff" d="
  M 1226.38 168.47
  Q 1228.72 165.73 1230.67 168.63
  A 1.71 1.45 -65.3 0 1 1230.93 169.56
  Q 1230.85 175.41 1230.77 181.25
  Q 1230.77 181.33 1230.83 184.25
  Q 1230.92 188.06 1229.69 191.69
  Q 1228.62 194.85 1226.69 191.56
  Q 1225.04 188.76 1224.79 185.50
  Q 1224.24 178.23 1225.26 170.95
  A 4.76 4.73 69.5 0 1 1226.38 168.47
  Z"
/>
<path fill="#ffffff" d="
  M 561.16 170.08
  Q 564.22 167.93 568.19 168.56
  Q 572.71 169.28 573.96 174.26
  Q 575.07 178.66 573.82 183.02
  Q 571.90 189.72 565.25 190.50
  Q 563.08 190.75 561.12 189.72
  Q 559.49 188.86 558.21 186.94
  Q 554.51 181.43 557.04 175.44
  Q 558.54 171.91 561.16 170.08
  Z
  M 564.88 172.60
  Q 561.86 177.75 561.35 183.34
  Q 561.15 185.48 561.54 186.64
  Q 562.44 189.26 565.79 187.12
  Q 567.17 186.24 567.84 184.75
  Q 570.86 178.00 568.54 172.80
  Q 566.91 169.16 564.88 172.60
  Z"
/>
<path fill="#ffffff" d="
  M 791.45 172.44
  Q 792.80 170.45 794.87 169.54
  Q 796.68 168.75 799.05 168.46
  Q 803.14 167.96 805.44 171.31
  Q 808.29 175.47 806.81 181.56
  Q 805.74 186.00 802.96 188.38
  Q 799.97 190.94 796.04 190.35
  Q 792.87 189.86 790.90 187.24
  Q 789.27 185.06 788.95 181.94
  Q 788.44 176.91 791.45 172.44
  Z
  M 797.51 172.82
  Q 794.09 178.63 794.17 185.25
  Q 794.23 189.41 797.98 187.46
  Q 800.05 186.38 801.06 183.56
  Q 803.21 177.57 801.39 173.10
  Q 799.73 169.04 797.51 172.82
  Z"
/>
<path fill="#ffffff" d="
  M 890.91 170.43
  Q 893.59 168.42 897.25 168.50
  Q 902.64 168.61 904.12 173.92
  Q 905.75 179.78 903.29 184.74
  Q 901.55 188.27 898.23 189.79
  Q 894.04 191.73 890.38 189.01
  Q 887.45 186.83 886.65 183.00
  Q 885.86 179.20 887.27 175.52
  Q 888.53 172.22 890.91 170.43
  Z
  M 895.70 171.92
  Q 891.53 177.91 891.46 185.25
  Q 891.42 188.95 894.69 187.94
  Q 897.69 187.00 898.78 183.26
  Q 900.47 177.46 898.61 172.31
  Q 897.53 169.29 895.70 171.92
  Z"
/>
<path fill="#ffffff" d="
  M 961.19 172.44
  Q 963.93 168.54 969.25 168.61
  Q 975.19 168.69 976.52 174.49
  Q 977.72 179.73 975.55 184.63
  Q 973.50 189.27 969.09 190.25
  Q 965.94 190.95 963.13 189.33
  Q 960.14 187.61 959.06 184.25
  Q 958.19 181.54 958.81 178.20
  Q 959.42 174.94 961.19 172.44
  Z
  M 967.25 172.83
  Q 964.04 178.28 963.85 184.50
  Q 963.70 189.81 968.25 187.15
  Q 969.65 186.33 970.32 184.85
  Q 973.21 178.42 971.13 173.14
  Q 969.51 169.00 967.25 172.83
  Z"
/>
<path fill="#ffffff" d="
  M 1020.14 180.45
  Q 1014.36 187.93 1005.07 190.10
  Q 1001.28 190.98 998.98 188.94
  Q 996.95 187.12 996.84 183.91
  Q 996.76 181.49 997.90 179.33
  Q 998.67 177.89 1000.54 175.57
  Q 1005.42 169.51 1013.50 168.47
  Q 1018.10 167.87 1021.33 170.84
  A 0.65 0.64 -38.6 0 0 1022.10 170.92
  Q 1024.32 169.59 1026.56 170.75
  A 0.88 0.83 -77.5 0 1 1027.01 171.50
  Q 1027.70 196.15 1018.50 220.00
  Q 1013.61 232.68 1005.16 241.91
  Q 993.65 254.47 977.12 254.88
  Q 971.31 255.03 967.62 253.22
  Q 962.13 250.53 961.64 244.65
  Q 961.21 239.52 965.11 232.56
  Q 968.72 226.10 974.02 220.77
  Q 985.67 209.06 996.94 201.69
  Q 1012.31 191.63 1015.81 189.81
  Q 1021.80 186.71 1020.54 180.54
  Q 1020.45 180.06 1020.14 180.45
  Z
  M 1006.79 176.32
  Q 1004.53 179.24 1004.31 181.81
  Q 1004.03 185.26 1006.63 185.05
  Q 1007.82 184.95 1009.60 183.91
  Q 1015.22 180.62 1018.95 175.17
  Q 1020.54 172.85 1017.78 172.28
  Q 1011.02 170.89 1006.79 176.32
  Z
  M 975.94 227.19
  Q 970.87 232.82 968.07 238.31
  Q 966.42 241.55 966.44 244.07
  Q 966.48 248.04 969.79 249.67
  Q 972.70 251.11 977.46 250.29
  Q 983.57 249.24 989.56 245.56
  Q 997.03 240.97 1001.44 235.94
  Q 1017.15 217.97 1019.07 193.09
  Q 1019.11 192.52 1018.63 192.83
  Q 1008.92 198.92 999.58 205.79
  Q 986.66 215.28 975.94 227.19
  Z"
/>
<path fill="#ffffff" d="
  M 663.91 183.98
  Q 659.67 190.18 653.81 192.31
  Q 648.27 194.33 645.32 190.81
  Q 643.09 188.16 643.66 183.71
  Q 644.86 174.42 654.00 170.50
  Q 658.81 168.44 663.57 171.01
  A 0.94 0.75 39.2 0 0 664.44 171.02
  Q 664.85 170.73 665.11 170.27
  A 1.66 0.89 -75.0 0 1 665.75 169.59
  Q 669.61 167.69 670.17 171.05
  Q 670.34 172.05 669.83 174.91
  Q 669.50 176.75 669.47 178.63
  Q 669.42 180.76 670.39 182.13
  Q 672.31 184.85 676.00 184.75
  Q 691.33 184.33 702.46 173.41
  A 1.11 0.75 -55.7 0 1 703.30 173.08
  Q 704.08 173.24 703.38 174.35
  Q 701.11 177.95 697.69 180.49
  Q 687.12 188.32 673.50 189.25
  Q 666.72 189.71 664.37 184.03
  Q 664.18 183.58 663.91 183.98
  Z
  M 652.65 176.91
  Q 650.00 180.86 650.00 185.25
  Q 650.00 188.03 652.12 188.28
  Q 653.46 188.44 654.93 187.20
  Q 660.67 182.36 662.63 174.98
  A 0.61 0.59 -70.2 0 0 662.31 174.28
  Q 656.37 171.36 652.65 176.91
  Z"
/>
<path fill="#ffffff" d="
  M 1111.87 184.28
  Q 1111.51 183.36 1110.97 184.19
  Q 1107.91 188.87 1103.57 191.21
  Q 1099.41 193.45 1095.66 192.49
  Q 1091.74 191.48 1091.08 187.23
  Q 1090.62 184.30 1091.73 180.86
  Q 1093.58 175.10 1098.93 171.64
  Q 1104.76 167.87 1111.25 171.12
  A 0.72 0.72 -61.8 0 0 1112.20 170.83
  Q 1113.65 168.28 1116.31 169.11
  A 2.14 2.13 -79.4 0 1 1117.80 171.30
  Q 1117.61 173.99 1117.10 175.91
  Q 1115.31 182.66 1121.75 184.50
  Q 1124.55 185.30 1128.80 184.49
  Q 1141.20 182.11 1150.09 173.29
  A 1.07 0.55 -51.3 0 1 1150.93 172.91
  Q 1151.22 172.99 1151.22 173.42
  Q 1151.21 173.65 1151.04 173.91
  Q 1147.08 179.90 1139.06 184.06
  Q 1130.26 188.64 1121.90 189.18
  Q 1118.25 189.42 1116.18 188.63
  Q 1113.11 187.46 1111.87 184.28
  Z
  M 1100.11 176.88
  Q 1097.44 180.90 1097.50 185.25
  Q 1097.54 188.40 1099.90 188.28
  Q 1101.21 188.21 1102.67 186.93
  Q 1107.60 182.63 1110.09 175.54
  A 1.27 1.27 -69.9 0 0 1109.35 173.94
  Q 1103.53 171.71 1100.11 176.88
  Z"
/>
<path fill="#ffffff" d="
  M 1271.91 183.98
  Q 1267.67 190.18 1261.81 192.31
  Q 1256.27 194.33 1253.32 190.81
  Q 1251.09 188.16 1251.66 183.71
  Q 1252.85 174.42 1262.00 170.50
  Q 1266.81 168.44 1271.57 171.01
  A 0.94 0.75 39.2 0 0 1272.44 171.02
  Q 1272.85 170.73 1273.11 170.27
  A 1.66 0.89 -75.0 0 1 1273.75 169.59
  Q 1277.61 167.69 1278.17 171.05
  Q 1278.34 172.05 1277.83 174.91
  Q 1277.50 176.75 1277.47 178.63
  Q 1277.42 180.76 1278.39 182.13
  Q 1280.31 184.85 1284.00 184.75
  Q 1299.33 184.33 1310.46 173.41
  A 1.11 0.75 -55.7 0 1 1311.30 173.08
  Q 1312.08 173.24 1311.38 174.35
  Q 1309.11 177.95 1305.69 180.49
  Q 1295.12 188.32 1281.50 189.25
  Q 1274.72 189.71 1272.37 184.03
  Q 1272.18 183.58 1271.91 183.98
  Z
  M 1260.65 176.91
  Q 1258.00 180.86 1258.00 185.25
  Q 1258.00 188.03 1260.12 188.28
  Q 1261.46 188.44 1262.93 187.20
  Q 1268.67 182.36 1270.63 174.98
  A 0.61 0.59 -70.2 0 0 1270.31 174.28
  Q 1264.37 171.36 1260.65 176.91
  Z"
/>
<path fill="#ffffff" d="
  M 605.79 186.08
  Q 606.75 188.23 608.79 187.07
  Q 615.38 183.35 614.56 175.74
  Q 614.55 175.69 614.41 174.77
  Q 613.75 170.73 618.76 171.34
  Q 620.74 171.59 620.75 173.58
  Q 620.83 185.70 619.80 197.80
  Q 618.56 212.16 617.24 217.62
  Q 614.55 228.77 607.50 238.25
  Q 596.45 253.09 578.75 255.75
  Q 574.34 256.41 569.87 255.07
  Q 565.12 253.64 562.57 250.52
  Q 558.79 245.90 560.81 239.31
  Q 563.86 229.37 572.32 220.57
  Q 590.32 201.87 613.49 190.16
  A 1.39 1.32 -3.1 0 0 614.14 189.47
  Q 615.05 187.22 613.34 188.80
  Q 613.02 189.09 612.73 189.26
  Q 608.23 191.80 603.95 190.39
  Q 600.14 189.12 597.99 185.02
  Q 595.19 179.66 597.00 173.50
  Q 597.80 170.80 600.50 170.34
  Q 602.20 170.05 603.49 170.10
  Q 606.06 170.20 605.13 173.54
  Q 603.24 180.33 605.79 186.08
  Z
  M 579.63 221.38
  Q 577.00 224.04 572.19 230.19
  Q 568.50 234.89 566.64 239.52
  Q 565.00 243.61 565.87 246.63
  Q 567.12 251.01 572.50 251.50
  Q 579.80 252.16 587.14 247.69
  Q 596.97 241.71 603.24 232.06
  Q 614.18 215.22 614.25 194.43
  Q 614.26 193.32 613.32 193.92
  Q 595.13 205.67 579.63 221.38
  Z"
/>
</svg>
