<?xml version="1.0" encoding="UTF-8" standalone="no"?>
<!DOCTYPE svg PUBLIC "-//W3C//DTD SVG 1.1//EN" "http://www.w3.org/Graphics/SVG/1.1/DTD/svg11.dtd">
<svg xmlns="http://www.w3.org/2000/svg" version="1.1" viewBox="0 0 1353 277">
<path fill="#ffffff" d="
  M 117.97 256.97
  L 79.18 271.18
  A 0.72 0.70 -20.1 0 1 78.26 270.77
  Q 47.20 187.14 16.25 103.50
  Q 15.11 100.42 14.77 98.68
  A 0.61 0.60 -15.6 0 1 15.16 98.01
  L 118.34 59.74
  A 0.72 0.71 -11.1 0 0 118.81 59.06
  L 118.74 19.26
  A 0.95 0.94 -90.0 0 1 119.68 18.31
  L 299.84 18.25
  A 0.67 0.66 90.0 0 1 300.50 18.92
  L 300.50 59.37
  A 0.73 0.73 -80.5 0 0 300.99 60.06
  L 403.55 96.77
  A 0.52 0.51 -70.7 0 1 403.86 97.43
  L 342.19 269.92
  A 0.81 0.81 16.6 0 1 341.16 270.41
  L 301.16 256.06
  Q 300.01 255.64 300.37 256.82
  Q 300.90 258.55 299.75 258.55
  Q 210.37 258.50 121.00 258.50
  Q 119.08 258.50 118.57 257.30
  A 0.54 0.44 68.2 0 0 117.97 256.97
  Z
  M 289.84 39.75
  Q 290.24 34.81 289.81 30.42
  A 1.29 1.29 87.3 0 0 288.53 29.25
  L 130.05 29.25
  A 0.56 0.56 89.5 0 0 129.49 29.82
  Q 129.62 36.70 129.47 43.28
  Q 129.27 52.65 129.29 56.73
  Q 129.61 116.11 129.27 175.50
  Q 129.19 188.75 129.54 203.60
  A 0.92 0.92 89.4 0 0 130.46 204.50
  L 289.31 204.32
  A 0.52 0.51 89.4 0 0 289.81 203.80
  Q 290.14 123.78 290.00 43.75
  Q 290.00 42.53 289.92 41.74
  Q 289.79 40.40 289.84 39.75
  Z
  M 72.12 229.48
  L 118.43 212.33
  A 0.87 0.86 -10.2 0 0 119.00 211.52
  L 119.00 69.21
  A 0.45 0.44 79.6 0 0 118.40 68.79
  L 25.28 103.39
  A 0.51 0.49 69.8 0 0 24.99 104.04
  L 71.40 229.15
  A 0.57 0.56 69.4 0 0 72.12 229.48
  Z
  M 300.44 73.19
  Q 300.20 141.72 300.25 211.12
  A 1.36 1.34 9.8 0 0 301.16 212.39
  L 347.39 228.65
  A 1.00 0.99 19.4 0 0 348.66 228.05
  L 393.37 102.86
  A 0.76 0.75 -70.5 0 0 392.92 101.90
  L 301.68 69.31
  A 1.08 1.08 5.4 0 0 300.25 70.49
  Q 300.45 71.84 300.44 73.19
  Z"
/>
<path fill="#ffffff" d="
  M 1248.60 36.85
  A 1.44 1.34 82.9 0 1 1247.72 38.07
  L 1234.98 42.85
  A 0.77 0.74 58.7 0 1 1234.15 42.63
  Q 1233.01 41.34 1232.55 39.67
  A 0.68 0.65 -22.9 0 1 1232.87 38.93
  Q 1237.34 36.27 1241.90 33.76
  Q 1244.31 32.44 1245.85 32.56
  Q 1248.91 32.80 1248.60 36.85
  Z"
/>
<path fill="#ffffff" d="
  M 533.65 60.93
  Q 535.79 52.73 542.05 48.50
  Q 547.65 44.72 555.58 44.79
  Q 570.17 44.93 575.44 60.06
  Q 578.03 67.51 574.93 76.23
  Q 570.56 88.56 557.49 90.40
  Q 542.70 92.48 535.81 80.69
  Q 530.76 72.04 533.65 60.93
  Z
  M 541.69 61.19
  Q 539.35 70.11 543.10 77.60
  Q 545.21 81.80 548.71 83.68
  Q 552.83 85.90 557.50 84.75
  Q 564.95 82.92 567.41 74.84
  Q 570.09 66.07 566.19 57.81
  Q 564.46 54.16 560.76 52.16
  Q 557.46 50.37 553.47 50.60
  Q 544.32 51.14 541.69 61.19
  Z"
/>
<path fill="#ffffff" d="
  M 649.69 50.78
  Q 644.21 50.51 640.50 51.50
  Q 639.20 51.85 638.79 53.45
  A 1.75 0.84 -88.0 0 1 638.35 54.29
  Q 637.34 55.19 635.90 54.74
  A 0.77 0.71 -83.6 0 1 635.40 54.06
  Q 635.13 49.64 635.97 45.30
  A 0.55 0.54 -82.4 0 1 636.55 44.85
  Q 654.18 46.18 671.82 44.97
  A 0.58 0.58 -7.5 0 1 672.42 45.43
  Q 672.93 47.92 673.00 50.46
  Q 673.00 50.70 673.26 53.02
  Q 673.59 55.87 670.20 54.45
  A 1.16 0.89 88.0 0 1 669.63 53.76
  Q 668.93 51.37 665.75 51.00
  Q 662.16 50.59 658.62 50.81
  A 0.45 0.44 -1.5 0 0 658.20 51.24
  Q 657.69 67.41 658.25 83.25
  Q 658.34 85.80 660.68 86.83
  Q 661.05 86.99 663.39 87.17
  Q 665.62 87.33 664.85 89.96
  A 0.63 0.60 10.6 0 1 664.19 90.39
  Q 655.54 89.66 645.44 90.44
  Q 642.22 90.69 643.76 87.69
  A 0.74 0.69 16.3 0 1 644.49 87.32
  Q 647.84 87.69 649.35 85.41
  Q 650.23 84.10 650.34 80.90
  Q 650.83 66.11 650.21 51.32
  A 0.56 0.55 -89.5 0 0 649.69 50.78
  Z"
/>
<path fill="#ffffff" d="
  M 732.60 60.91
  Q 734.78 52.72 741.05 48.50
  Q 746.71 44.68 754.60 44.82
  Q 765.55 45.03 771.40 53.95
  Q 775.26 59.85 775.49 66.80
  Q 775.65 71.59 774.07 76.17
  Q 772.52 80.65 769.24 84.06
  Q 763.04 90.52 754.26 90.78
  Q 745.78 91.04 739.72 86.33
  Q 733.23 81.28 732.00 71.75
  Q 731.26 65.98 732.60 60.91
  Z
  M 740.69 61.19
  Q 738.30 70.80 742.59 78.52
  Q 744.28 81.57 746.81 83.12
  Q 749.68 84.88 753.05 85.00
  Q 756.82 85.14 760.07 83.26
  Q 763.45 81.30 765.19 77.69
  Q 768.88 70.00 766.74 62.07
  Q 765.42 57.15 762.44 54.20
  Q 758.84 50.63 753.65 50.53
  Q 748.80 50.43 745.42 53.22
  Q 741.96 56.08 740.69 61.19
  Z"
/>
<path fill="#ffffff" d="
  M 837.49 60.45
  Q 839.00 54.99 842.75 51.23
  Q 846.12 47.87 851.61 46.17
  Q 862.37 42.84 873.87 47.41
  A 1.17 1.11 15.2 0 1 874.60 48.61
  L 873.62 55.20
  A 0.63 0.62 4.3 0 1 873.00 55.73
  L 870.81 55.73
  A 0.78 0.67 78.2 0 1 870.15 55.22
  Q 868.83 51.81 865.25 51.00
  Q 861.90 50.24 857.75 50.36
  Q 851.65 50.53 848.26 54.43
  Q 845.58 57.52 844.89 63.29
  Q 844.46 66.96 844.88 70.65
  Q 845.33 74.58 846.98 77.58
  Q 852.43 87.54 865.57 84.17
  Q 867.52 83.67 867.27 82.04
  L 866.44 76.56
  Q 866.01 73.79 862.75 74.50
  Q 860.45 75.00 860.67 72.99
  Q 860.72 72.53 860.60 72.01
  Q 860.30 70.72 861.68 71.07
  Q 862.47 71.26 862.85 71.28
  Q 870.65 71.71 878.43 71.10
  A 0.58 0.54 -6.6 0 1 879.04 71.55
  Q 879.26 72.90 878.85 74.22
  A 0.73 0.64 5.8 0 1 878.19 74.69
  Q 875.65 74.80 875.31 77.06
  Q 874.63 81.63 874.78 87.44
  A 1.01 1.01 -9.0 0 1 874.06 88.43
  Q 864.43 91.33 855.52 90.35
  Q 848.50 89.59 843.63 85.36
  Q 839.03 81.38 837.31 74.90
  Q 835.44 67.91 837.49 60.45
  Z"
/>
<path fill="#ffffff" d="
  M 1050.15 60.92
  Q 1052.34 55.24 1054.53 49.57
  Q 1055.46 47.18 1056.99 46.21
  Q 1058.64 45.16 1060.68 44.87
  A 0.66 0.64 75.1 0 1 1061.37 45.28
  Q 1068.04 62.16 1074.37 79.17
  Q 1075.39 81.90 1076.95 84.35
  Q 1078.80 87.23 1082.20 87.31
  A 0.91 0.77 -10.2 0 1 1082.94 87.74
  Q 1083.46 88.75 1083.29 89.94
  A 0.57 0.54 6.0 0 1 1082.69 90.40
  Q 1073.50 89.70 1064.31 90.40
  A 0.64 0.60 -9.4 0 1 1063.65 89.96
  Q 1063.35 88.84 1063.83 87.76
  A 0.83 0.71 10.2 0 1 1064.56 87.33
  Q 1068.30 87.32 1067.58 83.24
  Q 1066.68 78.22 1064.19 73.45
  A 0.85 0.85 75.5 0 0 1063.44 73.00
  L 1052.87 73.00
  A 0.82 0.82 12.5 0 0 1052.13 73.47
  Q 1049.69 78.69 1048.50 84.00
  Q 1047.81 87.10 1051.00 87.24
  A 0.99 0.80 -9.5 0 1 1051.77 87.67
  Q 1052.44 88.87 1051.77 90.08
  A 0.83 0.72 15.5 0 1 1051.00 90.45
  Q 1042.78 89.67 1034.56 90.39
  A 0.65 0.60 -10.5 0 1 1033.89 89.97
  Q 1033.58 88.94 1033.98 87.89
  A 0.96 0.80 3.4 0 1 1034.68 87.37
  Q 1039.88 86.50 1042.25 80.75
  Q 1046.32 70.88 1050.15 60.92
  Z
  M 1056.07 60.89
  Q 1054.73 64.25 1053.70 67.71
  A 0.36 0.34 7.1 0 0 1054.06 68.15
  L 1061.61 68.01
  A 0.47 0.46 -10.5 0 0 1062.05 67.39
  L 1058.19 56.83
  Q 1057.92 56.07 1057.64 56.83
  Q 1056.91 58.80 1056.07 60.89
  Z"
/>
<path fill="#ffffff" d="
  M 1353.00 87.31
  L 1353.00 90.31
  Q 1345.62 89.70 1336.75 90.50
  Q 1335.34 90.63 1335.79 89.45
  Q 1335.96 89.01 1335.93 88.51
  Q 1335.86 86.91 1338.01 87.24
  A 1.52 1.52 -85.3 0 0 1339.75 85.76
  Q 1339.85 79.68 1336.33 73.61
  A 1.23 1.21 -14.8 0 0 1335.27 73.00
  L 1325.71 73.00
  A 1.87 1.86 -78.6 0 0 1323.99 74.15
  Q 1321.88 79.16 1320.75 84.00
  Q 1320.02 87.13 1323.24 87.25
  A 0.96 0.63 -6.0 0 1 1324.03 87.66
  Q 1324.36 88.44 1324.04 90.04
  A 0.60 0.59 -81.0 0 1 1323.39 90.52
  Q 1315.13 89.57 1306.99 90.45
  A 0.66 0.63 -12.6 0 1 1306.31 90.04
  Q 1305.30 87.36 1307.66 87.03
  Q 1309.57 86.75 1310.21 86.38
  Q 1312.72 84.92 1313.69 82.69
  Q 1318.71 71.16 1327.31 48.06
  Q 1328.04 46.11 1330.51 45.59
  Q 1330.96 45.49 1331.41 45.20
  Q 1333.34 43.96 1334.25 46.50
  Q 1337.54 55.70 1347.56 81.44
  Q 1349.27 85.82 1353.00 87.31
  Z
  M 1328.28 60.88
  Q 1327.07 64.15 1325.97 67.47
  A 0.37 0.36 9.1 0 0 1326.32 67.95
  L 1333.54 68.01
  A 0.65 0.65 80.2 0 0 1334.15 67.14
  L 1330.54 57.17
  Q 1330.30 56.51 1329.98 57.13
  Q 1328.88 59.24 1328.28 60.88
  Z"
/>
<path fill="#ffffff" d="
  M 456.82 86.20
  Q 457.96 87.65 459.76 87.25
  Q 462.25 86.69 461.53 90.02
  A 0.63 0.63 9.2 0 1 460.85 90.51
  Q 451.76 89.59 442.76 90.45
  A 0.87 0.74 -15.8 0 1 441.97 90.09
  Q 441.28 88.91 442.01 87.73
  A 0.97 0.81 13.9 0 1 442.81 87.34
  Q 445.62 87.40 446.81 85.39
  Q 447.49 84.25 447.56 81.48
  Q 447.87 70.42 447.50 53.00
  Q 447.42 49.05 444.03 48.34
  Q 443.98 48.33 442.96 48.29
  Q 441.36 48.23 441.86 45.70
  A 0.60 0.60 6.8 0 1 442.47 45.22
  Q 457.25 45.77 472.70 45.20
  A 0.96 0.92 -0.9 0 1 473.70 46.13
  L 473.55 54.01
  A 0.74 0.71 -8.6 0 1 473.03 54.68
  Q 471.69 55.11 470.48 54.45
  A 1.01 0.76 -82.0 0 1 470.06 53.69
  Q 469.97 52.47 469.11 51.76
  Q 468.52 51.27 467.24 51.15
  Q 462.08 50.66 456.39 50.76
  A 0.90 0.90 0.9 0 0 455.51 51.64
  L 455.22 62.86
  A 0.92 0.92 -85.0 0 0 456.00 63.79
  Q 461.09 64.51 464.48 63.14
  A 0.95 0.84 85.6 0 0 465.00 62.45
  Q 465.46 59.98 468.02 60.82
  A 0.73 0.65 -81.7 0 1 468.46 61.49
  L 468.46 72.01
  A 0.66 0.57 84.6 0 1 468.01 72.64
  Q 466.86 72.89 465.77 72.42
  A 0.79 0.69 -78.6 0 1 465.35 71.69
  Q 465.42 69.57 463.75 69.25
  Q 460.04 68.54 455.82 68.77
  A 0.59 0.59 -1.0 0 0 455.26 69.35
  Q 455.12 75.41 455.46 81.09
  Q 455.47 81.20 455.47 82.40
  Q 455.49 84.51 456.82 86.20
  Z"
/>
<path fill="#ffffff" d="
  M 963.82 71.74
  Q 968.24 78.94 973.44 83.81
  Q 976.50 86.68 981.18 87.26
  A 0.97 0.87 -7.9 0 1 981.92 87.76
  Q 983.28 90.53 980.72 90.59
  Q 978.85 90.63 978.30 90.72
  Q 969.84 91.98 964.81 85.44
  Q 961.39 80.99 956.45 72.74
  A 0.99 0.69 67.6 0 0 955.69 72.25
  L 952.48 72.42
  A 0.79 0.72 89.3 0 0 951.80 73.18
  Q 951.60 78.81 952.25 83.42
  Q 952.55 85.55 953.42 86.29
  Q 954.57 87.26 956.75 87.25
  A 0.90 0.90 83.8 0 1 957.64 87.97
  Q 958.22 90.79 956.41 90.45
  Q 955.16 90.21 955.07 90.21
  Q 947.06 89.71 939.07 90.39
  A 0.71 0.64 -12.0 0 1 938.36 89.98
  Q 937.92 88.79 938.49 87.68
  A 0.82 0.69 13.5 0 1 939.25 87.30
  Q 941.70 87.47 942.94 85.86
  Q 943.72 84.85 943.88 82.45
  Q 944.86 67.57 944.05 52.68
  Q 943.81 48.12 939.29 48.31
  A 0.85 0.84 -8.4 0 1 938.43 47.68
  Q 937.70 44.91 939.35 45.16
  Q 940.11 45.27 940.15 45.27
  Q 949.31 45.77 955.19 45.44
  Q 959.75 45.18 963.76 46.20
  Q 968.49 47.40 970.95 50.13
  Q 974.03 53.57 973.25 58.75
  Q 972.02 66.89 964.00 71.09
  A 0.46 0.46 -29.7 0 0 963.82 71.74
  Z
  M 965.53 59.69
  Q 967.17 53.26 959.53 51.26
  Q 958.77 51.06 957.81 51.03
  Q 956.95 51.00 956.08 50.97
  Q 955.98 50.97 954.07 50.72
  Q 951.77 50.42 951.83 52.73
  Q 951.89 54.96 951.86 55.28
  Q 951.34 60.77 952.23 66.20
  A 0.72 0.70 -89.5 0 0 952.80 66.79
  Q 957.39 67.72 960.99 65.73
  Q 964.48 63.80 965.53 59.69
  Z"
/>
<path fill="#ffffff" d="
  M 1154.75 86.10
  Q 1155.97 87.66 1157.92 87.31
  Q 1160.21 86.90 1159.55 89.94
  A 0.67 0.67 -80.8 0 1 1158.83 90.46
  Q 1149.90 89.66 1140.57 90.40
  A 0.69 0.66 -11.8 0 1 1139.88 89.97
  Q 1138.97 87.44 1141.18 87.18
  Q 1143.10 86.95 1143.58 86.65
  Q 1145.38 85.50 1145.48 83.00
  Q 1146.06 68.16 1145.51 53.33
  Q 1145.42 50.94 1144.74 49.94
  Q 1143.63 48.32 1141.25 48.31
  Q 1139.29 48.30 1139.87 45.70
  A 0.61 0.61 -82.7 0 1 1140.49 45.22
  Q 1155.25 45.78 1170.70 45.20
  A 0.96 0.92 -0.9 0 1 1171.70 46.13
  L 1171.55 54.01
  A 0.74 0.71 -8.6 0 1 1171.03 54.68
  Q 1169.69 55.11 1168.48 54.45
  A 1.01 0.76 -82.0 0 1 1168.06 53.69
  Q 1167.97 52.47 1167.11 51.76
  Q 1166.52 51.27 1165.24 51.15
  Q 1159.99 50.65 1154.47 50.76
  A 0.99 0.98 -89.7 0 0 1153.50 51.73
  L 1153.24 63.33
  A 0.61 0.55 89.2 0 0 1153.82 63.95
  L 1161.92 63.62
  A 1.37 1.27 85.7 0 0 1163.13 62.11
  Q 1162.93 60.36 1166.07 60.89
  A 0.55 0.55 -82.8 0 1 1166.53 61.49
  Q 1165.99 66.50 1166.59 71.24
  Q 1166.88 73.55 1163.77 72.15
  A 0.82 0.82 -75.4 0 1 1163.29 71.33
  Q 1163.41 69.88 1161.70 69.46
  Q 1158.03 68.56 1153.82 68.77
  A 0.59 0.59 -1.0 0 0 1153.26 69.35
  Q 1153.12 75.39 1153.46 81.07
  Q 1153.46 81.14 1153.47 82.44
  Q 1153.49 84.51 1154.75 86.10
  Z"
/>
<path fill="#ffffff" d="
  M 1236.44 79.69
  Q 1236.58 72.62 1236.25 53.50
  Q 1236.16 48.24 1231.32 48.18
  A 0.77 0.69 -8.1 0 1 1230.63 47.72
  Q 1229.56 44.78 1232.75 45.25
  Q 1237.92 46.01 1249.19 45.10
  A 0.66 0.62 -10.7 0 1 1249.86 45.53
  Q 1250.75 48.27 1247.69 48.44
  Q 1244.44 48.61 1244.29 52.25
  Q 1243.66 67.50 1244.30 82.75
  Q 1244.50 87.37 1249.01 87.27
  A 0.78 0.72 -12.1 0 1 1249.72 87.69
  Q 1251.31 91.12 1247.29 90.57
  Q 1239.66 89.53 1231.46 90.57
  A 0.75 0.74 -9.0 0 1 1230.63 89.97
  Q 1230.04 86.77 1232.50 87.25
  Q 1235.07 87.75 1235.75 85.00
  Q 1236.39 82.40 1236.44 79.69
  Z"
/>
<path fill="#ffffff" d="
  M 844.49 200.12
  Q 844.50 200.27 844.59 200.42
  Q 852.01 213.50 854.50 229.00
  Q 855.52 235.37 854.14 241.20
  Q 852.82 246.78 849.69 249.29
  Q 845.00 253.05 838.69 247.81
  Q 834.34 244.21 831.58 236.22
  Q 827.93 225.66 827.28 214.50
  Q 826.32 197.79 829.44 175.69
  Q 831.77 159.20 836.50 143.25
  Q 839.60 132.79 845.29 123.50
  Q 848.59 118.10 853.06 115.31
  Q 854.96 114.13 858.26 113.82
  Q 869.65 112.74 869.00 124.25
  Q 868.64 130.69 865.84 138.26
  Q 864.25 142.56 860.10 151.31
  Q 851.58 169.28 839.95 185.93
  A 1.02 1.00 -43.8 0 0 839.92 187.04
  Q 843.37 192.51 848.20 196.62
  Q 852.33 200.12 855.50 200.71
  Q 860.14 201.58 864.19 197.69
  Q 865.34 196.58 868.30 193.14
  Q 868.79 192.57 869.23 192.44
  Q 870.07 192.18 870.18 193.17
  Q 870.23 193.63 869.93 194.15
  Q 867.96 197.61 863.94 201.69
  Q 859.03 206.66 853.00 205.25
  Q 848.80 204.26 844.77 200.04
  Q 844.48 199.73 844.49 200.12
  Z
  M 853.67 120.92
  Q 848.73 127.61 845.84 135.26
  Q 844.34 139.25 841.27 150.79
  Q 837.26 165.91 835.50 181.52
  Q 835.12 184.92 837.11 182.14
  Q 852.46 160.87 861.81 135.81
  Q 864.64 128.23 863.78 121.07
  Q 863.49 118.66 862.57 117.67
  Q 861.10 116.08 858.38 117.22
  Q 855.51 118.43 853.67 120.92
  Z
  M 834.14 194.80
  Q 832.70 215.40 838.24 235.25
  Q 839.93 241.32 843.54 246.40
  Q 844.81 248.20 846.49 246.76
  Q 849.22 244.41 849.36 240.75
  Q 849.55 235.80 849.25 234.00
  Q 845.69 212.84 835.99 193.72
  Q 835.81 193.36 835.54 192.75
  Q 834.12 189.51 834.17 193.57
  Q 834.18 194.25 834.14 194.80
  Z"
/>
<path fill="#ffffff" d="
  M 1182.26 200.61
  Q 1180.49 198.66 1181.79 200.95
  Q 1189.94 215.35 1191.74 231.25
  Q 1192.64 239.21 1189.69 245.69
  Q 1187.67 250.12 1183.45 250.63
  Q 1180.10 251.04 1176.75 248.47
  Q 1171.93 244.76 1169.50 238.50
  Q 1165.28 227.64 1164.46 217.25
  Q 1163.32 202.86 1164.76 188.50
  Q 1167.04 165.87 1173.36 144.03
  Q 1175.99 134.96 1180.34 126.58
  Q 1182.89 121.68 1187.25 117.50
  Q 1189.84 115.02 1193.04 114.18
  Q 1196.43 113.29 1199.49 113.79
  Q 1202.80 114.33 1204.57 117.13
  Q 1205.88 119.20 1205.92 122.63
  Q 1205.98 127.80 1204.25 133.25
  Q 1201.90 140.66 1199.91 145.17
  Q 1190.43 166.58 1176.85 186.12
  A 0.75 0.74 45.8 0 0 1176.84 186.97
  Q 1180.37 192.30 1184.71 196.21
  Q 1188.83 199.93 1192.02 200.64
  Q 1196.76 201.69 1200.98 197.72
  Q 1203.37 195.48 1205.50 192.98
  Q 1206.62 191.66 1207.11 193.02
  A 1.27 1.02 -45.7 0 1 1207.02 193.95
  Q 1203.37 200.83 1197.50 204.25
  Q 1195.72 205.29 1193.21 205.48
  Q 1191.11 205.65 1188.89 204.83
  Q 1184.70 203.30 1182.26 200.61
  Z
  M 1190.32 121.09
  Q 1186.77 125.82 1184.63 131.34
  Q 1175.20 155.70 1172.56 181.70
  Q 1172.49 182.36 1172.70 182.76
  Q 1173.21 183.74 1174.16 182.38
  Q 1187.63 163.03 1196.85 141.33
  Q 1199.89 134.18 1201.01 126.50
  Q 1201.55 122.82 1200.43 119.27
  Q 1199.32 115.73 1195.75 117.00
  Q 1192.54 118.14 1190.32 121.09
  Z
  M 1171.45 191.37
  Q 1169.19 214.26 1175.67 236.20
  Q 1177.11 241.10 1180.16 245.99
  Q 1181.28 247.79 1183.26 247.01
  Q 1184.93 246.36 1185.61 243.47
  Q 1186.89 238.03 1185.91 232.52
  Q 1182.06 210.77 1171.78 191.30
  Q 1171.50 190.78 1171.45 191.37
  Z"
/>
<path fill="#ffffff" d="
  M 931.53 171.81
  Q 930.82 184.89 930.93 198.00
  Q 931.00 205.98 934.31 213.19
  Q 935.73 216.26 932.81 214.44
  Q 929.19 212.17 927.99 208.00
  Q 925.39 198.94 925.43 189.50
  Q 925.47 180.78 925.83 171.67
  A 0.73 0.69 1.6 0 0 925.12 170.96
  L 916.50 170.80
  A 1.11 0.97 -15.1 0 1 915.66 170.39
  Q 915.20 169.77 915.82 169.27
  Q 916.14 169.01 916.75 168.95
  Q 920.89 168.59 925.45 168.77
  A 0.54 0.53 -86.7 0 0 926.00 168.27
  L 927.12 152.07
  A 3.89 3.88 -21.5 0 1 928.15 149.71
  Q 929.61 148.14 931.16 149.64
  A 1.19 1.14 -69.1 0 1 931.52 150.49
  L 931.70 168.05
  A 0.52 0.49 89.4 0 0 932.19 168.56
  Q 936.70 168.50 941.21 168.50
  Q 941.30 168.50 942.77 168.38
  Q 944.84 168.20 944.28 170.32
  A 1.31 1.29 6.9 0 1 943.03 171.28
  L 932.07 171.30
  A 0.54 0.54 -88.3 0 0 931.53 171.81
  Z"
/>
<path fill="#ffffff" d="
  M 1226.48 172.21
  Q 1227.36 170.35 1229.35 170.72
  Q 1231.91 171.20 1230.64 173.12
  L 1228.92 175.73
  A 1.19 0.69 6.1 0 1 1228.07 176.11
  Q 1224.57 176.28 1226.48 172.21
  Z"
/>
<path fill="#ffffff" d="
  M 507.55 186.50
  Q 511.03 180.25 513.31 177.06
  Q 514.41 175.54 516.26 174.28
  Q 518.19 172.98 519.97 172.80
  Q 522.89 172.50 524.25 174.96
  Q 525.04 176.39 525.00 179.19
  Q 524.91 185.46 523.91 191.64
  Q 523.40 194.81 523.29 196.39
  Q 523.06 199.72 523.31 201.19
  Q 523.70 203.42 525.77 203.04
  Q 527.69 202.69 529.18 201.45
  L 538.57 193.56
  Q 539.86 192.47 539.68 194.15
  Q 539.53 195.58 538.23 196.79
  Q 536.79 198.14 536.74 198.19
  Q 533.64 201.51 530.10 204.34
  Q 527.23 206.65 524.81 207.12
  Q 520.61 207.94 518.71 204.59
  Q 517.35 202.21 517.49 197.18
  Q 517.61 193.07 518.25 188.25
  Q 518.56 185.90 518.52 182.27
  Q 518.51 180.73 517.96 179.84
  Q 516.83 178.01 515.32 179.98
  Q 514.82 180.62 514.21 181.98
  Q 510.39 190.35 507.93 199.23
  Q 506.88 203.01 503.21 201.82
  A 1.55 1.54 6.7 0 1 502.15 200.49
  Q 501.67 195.00 501.74 191.02
  Q 501.75 190.36 501.46 190.06
  Q 500.89 189.48 500.17 190.68
  Q 498.35 193.72 497.16 197.06
  Q 495.79 200.90 493.61 204.31
  Q 492.52 206.03 491.16 206.34
  Q 489.47 206.73 488.53 205.20
  Q 488.01 204.35 487.95 202.69
  Q 487.70 195.72 487.75 188.74
  A 1.22 1.09 70.4 0 1 488.10 187.89
  Q 490.26 185.81 492.35 187.94
  A 1.51 0.50 87.4 0 1 492.69 188.82
  L 493.28 192.08
  Q 493.51 193.39 494.27 192.20
  Q 495.66 190.02 496.96 187.95
  Q 498.75 185.12 500.18 184.12
  Q 504.12 181.37 507.08 186.51
  Q 507.32 186.93 507.55 186.50
  Z"
/>
<path fill="#ffffff" d="
  M 722.81 190.14
  Q 723.10 191.81 723.93 190.45
  Q 726.61 186.07 729.89 183.36
  Q 731.97 181.66 734.63 181.27
  Q 739.30 180.59 741.07 184.68
  Q 742.28 187.48 742.71 190.51
  Q 743.17 193.77 744.49 196.79
  Q 745.43 198.93 747.35 199.77
  Q 748.70 200.35 751.20 200.19
  Q 760.40 199.59 767.14 193.14
  Q 769.72 190.67 772.86 189.04
  Q 773.39 188.77 773.80 188.88
  Q 774.67 189.13 773.94 190.19
  Q 769.03 197.22 760.06 201.81
  Q 755.80 204.00 751.81 204.79
  Q 747.04 205.75 743.33 204.09
  Q 738.47 201.92 736.25 196.25
  Q 735.03 193.13 734.57 190.83
  Q 733.36 184.75 730.19 188.33
  Q 729.24 189.40 728.17 191.46
  Q 725.09 197.37 723.54 203.90
  Q 722.44 208.52 718.77 206.83
  A 2.18 2.17 11.8 0 1 717.50 204.90
  Q 717.36 198.19 717.27 191.61
  Q 717.26 191.53 717.12 189.40
  Q 716.79 184.67 721.73 186.62
  A 1.01 0.81 9.3 0 1 722.33 187.29
  L 722.81 190.14
  Z"
/>
<path fill="#ffffff" d="
  M 1062.57 207.38
  Q 1065.85 206.88 1068.06 203.56
  Q 1072.05 197.58 1073.86 193.53
  A 0.67 0.48 -66.3 0 1 1074.56 193.11
  Q 1075.06 193.31 1074.85 194.27
  Q 1073.93 198.56 1070.56 204.81
  Q 1067.68 210.17 1062.00 211.50
  Q 1058.81 212.25 1057.10 210.23
  Q 1055.96 208.88 1055.86 205.98
  Q 1055.68 200.95 1056.76 195.96
  A 1.19 1.19 2.8 0 0 1055.46 194.53
  Q 1045.70 195.71 1047.89 187.21
  Q 1048.48 184.91 1049.56 183.98
  Q 1051.13 182.64 1053.64 183.47
  A 1.68 1.53 17.4 0 1 1054.77 185.40
  L 1053.42 189.94
  Q 1052.70 192.40 1055.00 191.57
  Q 1064.08 188.28 1061.94 198.49
  Q 1061.05 202.76 1061.95 206.95
  A 0.55 0.55 79.4 0 0 1062.57 207.38
  Z"
/>
<path fill="#ffffff" d="
  M 1225.35 183.75
  Q 1227.19 182.41 1228.90 184.66
  A 1.56 1.29 -68.4 0 1 1229.19 185.56
  Q 1229.19 195.50 1228.71 205.44
  Q 1228.60 207.57 1226.95 208.52
  A 0.76 0.74 48.8 0 1 1226.10 208.45
  Q 1223.60 206.48 1223.25 202.50
  Q 1222.47 193.60 1223.84 186.57
  Q 1224.22 184.57 1225.35 183.75
  Z"
/>
<path fill="#ffffff" d="
  M 556.69 188.69
  Q 558.35 186.09 561.22 185.17
  Q 564.02 184.27 566.68 184.61
  Q 570.36 185.07 571.75 189.00
  Q 574.41 196.54 570.44 202.44
  Q 567.22 207.22 562.23 206.48
  Q 558.09 205.87 555.78 201.93
  Q 552.15 195.76 556.69 188.69
  Z
  M 563.70 187.92
  Q 559.53 193.91 559.46 201.25
  Q 559.42 204.90 562.69 203.94
  Q 565.47 203.12 566.61 199.79
  Q 568.70 193.67 566.54 188.25
  Q 565.42 185.45 563.70 187.92
  Z"
/>
<path fill="#ffffff" d="
  M 789.69 188.44
  Q 792.70 184.54 797.75 184.45
  Q 800.29 184.40 802.14 185.77
  Q 803.73 186.94 804.60 189.31
  Q 806.20 193.64 804.75 198.75
  Q 803.42 203.45 799.78 205.45
  Q 797.11 206.91 794.03 206.27
  Q 790.68 205.57 788.84 202.85
  Q 786.88 199.96 787.09 195.70
  Q 787.29 191.54 789.69 188.44
  Z
  M 795.70 188.92
  Q 792.13 194.97 792.25 201.89
  Q 792.31 205.28 795.42 203.94
  Q 798.42 202.66 799.43 199.60
  Q 801.35 193.77 799.72 189.29
  Q 798.10 184.84 795.70 188.92
  Z"
/>
<path fill="#ffffff" d="
  M 887.45 188.45
  Q 888.80 186.45 890.87 185.54
  Q 892.68 184.75 895.05 184.45
  Q 899.14 183.94 901.44 187.31
  Q 904.28 191.49 902.81 197.56
  Q 901.74 202.00 898.96 204.38
  Q 895.97 206.94 892.04 206.35
  Q 888.87 205.86 886.90 203.24
  Q 885.27 201.06 884.95 197.94
  Q 884.45 192.91 887.45 188.45
  Z
  M 893.51 188.82
  Q 890.09 194.63 890.17 201.25
  Q 890.23 205.41 893.98 203.46
  Q 896.05 202.38 897.06 199.56
  Q 899.21 193.57 897.39 189.10
  Q 895.73 185.04 893.51 188.82
  Z"
/>
<path fill="#ffffff" d="
  M 959.44 188.44
  Q 962.56 184.50 967.75 184.47
  Q 971.45 184.45 973.50 187.50
  Q 975.46 190.41 975.31 194.22
  Q 975.16 197.98 973.87 200.81
  Q 972.67 203.45 970.19 205.05
  Q 967.82 206.57 965.04 206.44
  Q 961.32 206.27 959.08 203.47
  Q 957.26 201.20 956.88 197.66
  Q 956.31 192.39 959.44 188.44
  Z
  M 965.50 188.83
  Q 962.09 194.63 962.17 201.25
  Q 962.23 205.41 965.98 203.46
  Q 968.06 202.38 969.06 199.56
  Q 971.19 193.57 969.39 189.11
  Q 967.74 185.03 965.50 188.83
  Z"
/>
<path fill="#ffffff" d="
  M 1018.37 196.69
  Q 1012.06 204.25 1003.00 206.25
  Q 999.77 206.96 997.50 205.19
  Q 995.39 203.54 995.14 200.71
  Q 994.87 197.74 996.69 194.69
  Q 1002.53 184.86 1013.25 184.50
  Q 1015.20 184.43 1016.68 185.03
  Q 1018.24 185.66 1019.74 186.79
  A 0.83 0.81 48.9 0 0 1020.61 186.86
  Q 1023.00 185.58 1024.84 186.71
  A 0.97 0.86 -76.6 0 1 1025.26 187.49
  Q 1025.68 202.93 1022.33 217.85
  Q 1019.87 228.78 1016.57 236.97
  Q 1011.94 248.43 1004.31 257.06
  Q 993.45 269.36 977.00 270.96
  Q 972.31 271.41 968.07 270.00
  Q 963.33 268.41 961.19 264.85
  Q 958.43 260.24 960.74 254.21
  Q 963.98 245.77 970.13 239.14
  Q 981.31 227.11 994.93 217.92
  Q 1008.05 209.08 1014.56 205.56
  Q 1020.01 202.62 1018.80 196.79
  Q 1018.70 196.31 1018.37 196.69
  Z
  M 1005.02 192.31
  Q 1002.67 195.35 1002.56 197.81
  Q 1002.35 202.45 1006.66 200.33
  Q 1013.04 197.18 1017.23 191.07
  Q 1018.42 189.33 1016.42 188.63
  Q 1009.67 186.30 1005.02 192.31
  Z
  M 967.19 265.06
  Q 970.66 267.48 975.25 266.52
  Q 985.93 264.30 994.06 257.06
  Q 1003.69 248.50 1008.52 239.54
  Q 1015.91 225.82 1017.33 209.35
  Q 1017.40 208.53 1016.70 208.96
  Q 997.92 220.68 982.24 234.99
  Q 976.48 240.26 971.41 246.18
  Q 966.29 252.16 964.81 258.06
  Q 963.67 262.61 967.19 265.06
  Z"
/>
<path fill="#ffffff" d="
  M 661.95 200.16
  Q 658.63 204.68 654.69 207.19
  Q 650.73 209.70 646.46 208.43
  Q 643.70 207.61 642.50 205.38
  Q 641.23 203.00 641.76 200.00
  Q 643.78 188.46 654.25 185.75
  Q 657.71 184.85 662.05 187.02
  A 0.54 0.54 -60.8 0 0 662.75 186.82
  Q 664.20 184.52 666.46 184.93
  Q 669.48 185.48 668.66 188.43
  Q 667.82 191.43 667.74 194.23
  Q 667.65 197.11 669.13 198.76
  Q 670.97 200.79 674.00 200.75
  Q 682.26 200.63 691.06 196.31
  Q 697.00 193.40 700.36 189.57
  A 1.70 1.10 -65.5 0 1 701.17 189.05
  Q 702.49 188.75 701.69 190.19
  Q 699.92 193.35 696.59 195.88
  Q 694.25 197.66 690.21 199.90
  Q 683.66 203.53 676.19 204.94
  Q 671.38 205.84 667.50 204.75
  Q 664.03 203.77 662.44 200.20
  A 0.29 0.28 -39.6 0 0 661.95 200.16
  Z
  M 650.88 192.90
  Q 648.18 197.01 648.25 200.50
  Q 648.35 205.36 651.71 204.10
  Q 653.20 203.54 654.80 201.80
  Q 659.00 197.24 660.98 191.30
  A 0.98 0.98 20.0 0 0 660.40 190.06
  Q 654.28 187.71 650.88 192.90
  Z"
/>
<path fill="#ffffff" d="
  M 1110.11 200.21
  Q 1109.73 199.33 1109.23 200.14
  Q 1105.73 205.71 1100.03 207.99
  Q 1094.41 210.23 1091.05 206.66
  Q 1089.36 204.87 1089.41 201.83
  Q 1089.59 190.88 1099.53 186.65
  Q 1102.25 185.49 1104.63 185.73
  Q 1107.11 185.97 1109.77 187.20
  A 0.43 0.42 -70.5 0 0 1110.35 186.92
  Q 1110.74 185.39 1112.39 184.99
  Q 1116.04 184.11 1116.00 187.75
  Q 1115.98 189.26 1115.49 191.82
  Q 1114.98 194.43 1115.23 195.84
  Q 1116.15 201.09 1122.25 200.75
  Q 1134.30 200.08 1144.06 193.06
  Q 1146.09 191.59 1147.74 189.69
  Q 1148.10 189.28 1148.53 189.12
  Q 1150.24 188.48 1149.00 190.47
  Q 1147.35 193.12 1145.01 195.07
  Q 1143.54 196.30 1140.08 198.53
  Q 1130.77 204.53 1119.51 205.39
  Q 1112.57 205.91 1110.11 200.21
  Z
  M 1098.39 192.91
  Q 1095.99 196.50 1095.77 200.75
  Q 1095.69 202.23 1096.23 203.15
  Q 1097.10 204.62 1098.73 204.27
  Q 1099.90 204.02 1101.36 202.63
  Q 1106.35 197.91 1108.50 191.24
  A 0.95 0.95 19.9 0 0 1107.95 190.07
  Q 1101.93 187.63 1098.39 192.91
  Z"
/>
<path fill="#ffffff" d="
  M 1269.95 200.16
  Q 1266.63 204.68 1262.69 207.19
  Q 1258.73 209.70 1254.46 208.43
  Q 1251.70 207.61 1250.50 205.38
  Q 1249.23 203.00 1249.76 200.00
  Q 1251.78 188.46 1262.25 185.75
  Q 1265.71 184.85 1270.05 187.02
  A 0.54 0.54 -60.8 0 0 1270.75 186.82
  Q 1272.20 184.52 1274.46 184.93
  Q 1277.48 185.48 1276.66 188.43
  Q 1275.82 191.43 1275.74 194.23
  Q 1275.65 197.11 1277.13 198.76
  Q 1278.97 200.79 1282.00 200.75
  Q 1290.26 200.63 1299.06 196.31
  Q 1305.00 193.40 1308.36 189.57
  A 1.70 1.10 -65.5 0 1 1309.17 189.05
  Q 1310.47 188.76 1309.69 190.19
  Q 1307.82 193.59 1303.75 196.52
  Q 1294.90 202.87 1284.19 204.92
  Q 1279.38 205.84 1275.50 204.75
  Q 1272.03 203.77 1270.44 200.20
  A 0.29 0.28 -39.6 0 0 1269.95 200.16
  Z
  M 1258.88 192.90
  Q 1256.18 197.01 1256.25 200.50
  Q 1256.35 205.36 1259.71 204.10
  Q 1261.20 203.54 1262.80 201.80
  Q 1267.00 197.24 1268.98 191.30
  A 0.98 0.98 20.0 0 0 1268.40 190.06
  Q 1262.28 187.71 1258.88 192.90
  Z"
/>
<path fill="#ffffff" d="
  M 603.90 201.75
  Q 605.04 204.32 607.42 202.81
  Q 613.87 198.73 612.51 189.97
  A 2.23 2.22 -16.7 0 1 613.78 187.62
  Q 619.49 185.01 619.14 191.31
  Q 618.99 194.13 618.99 194.18
  Q 618.87 203.40 618.13 212.59
  Q 617.05 226.23 616.16 230.88
  Q 613.50 244.82 604.94 255.44
  Q 597.01 265.26 584.81 269.81
  Q 579.11 271.94 573.39 271.75
  Q 566.82 271.53 562.68 268.43
  Q 556.29 263.63 559.50 254.00
  Q 562.02 246.44 568.49 239.23
  Q 587.00 218.62 611.75 206.16
  A 1.48 1.44 -1.7 0 0 612.41 205.48
  Q 613.38 203.40 611.72 204.71
  Q 611.38 204.97 611.12 205.12
  Q 604.77 208.67 599.97 205.35
  Q 596.41 202.88 595.08 198.07
  Q 593.80 193.43 595.56 188.81
  Q 596.41 186.59 598.75 186.27
  Q 600.41 186.05 601.74 186.10
  Q 604.31 186.20 603.38 189.54
  Q 601.47 196.34 603.90 201.75
  Z
  M 565.91 265.34
  Q 568.06 267.34 571.00 267.48
  Q 576.60 267.75 581.66 265.38
  Q 592.42 260.35 599.50 250.80
  Q 612.84 232.76 612.33 210.18
  Q 612.32 209.69 611.88 209.96
  Q 592.11 222.36 576.06 239.31
  Q 570.37 245.32 566.19 252.47
  Q 564.66 255.09 563.94 258.69
  Q 563.12 262.74 565.91 265.34
  Z"
/>
</svg>
