<?xml version="1.0" encoding="UTF-8" standalone="no"?>
<!DOCTYPE svg PUBLIC "-//W3C//DTD SVG 1.1//EN" "http://www.w3.org/Graphics/SVG/1.1/DTD/svg11.dtd">
<svg xmlns="http://www.w3.org/2000/svg" version="1.1" viewBox="0 0 1250 1250">
<g stroke-width="2.00" fill="none" stroke-linecap="butt">
<path stroke="#bfc2c0" stroke-opacity="0.933" vector-effect="non-scaling-stroke" d="
  M 891.75 630.04
  Q 890.71 628.62 889.75 629.96"
/>
<path stroke="#fafaf8" stroke-opacity="0.992" vector-effect="non-scaling-stroke" d="
  M 879.21 666.75
  Q 879.64 667.70 880.46 667.25"
/>
<path stroke="#d6d6d1" stroke-opacity="0.969" vector-effect="non-scaling-stroke" d="
  M 864.29 665.75
  Q 864.96 665.63 865.21 666.25"
/>
<path stroke="#bbb9bd" stroke-opacity="0.827" vector-effect="non-scaling-stroke" d="
  M 865.21 666.25
  Q 865.26 669.63 865.84 666.26
  Q 866.03 665.13 866.21 664.00"
/>
<path stroke="#c4c3c3" stroke-opacity="0.729" vector-effect="non-scaling-stroke" d="
  M 867.04 660.25
  L 868.50 655.29"
/>
<path stroke="#c4c3c3" stroke-opacity="0.729" vector-effect="non-scaling-stroke" d="
  M 874.04 638.00
  L 875.46 634.50"
/>
<path stroke="#c4c3c3" stroke-opacity="0.729" vector-effect="non-scaling-stroke" d="
  M 874.75 633.54
  Q 874.50 633.46 874.25 633.54"
/>
<path stroke="#c5c3c4" stroke-opacity="0.729" vector-effect="non-scaling-stroke" d="
  M 621.96 669.25
  Q 622.16 669.72 621.92 670.10
  Q 621.67 670.47 622.06 670.35
  Q 623.18 670.02 622.71 668.50"
/>
<path stroke="#ffffff" vector-effect="non-scaling-stroke" d="
  M 993.50 656.21
  Q 993.73 656.27 993.79 656.50"
/>
<path stroke="#ffffff" vector-effect="non-scaling-stroke" d="
  M 1000.50 650.29
  Q 999.88 650.40 999.51 649.29"
/>
<path stroke="#bbb9bd" stroke-opacity="0.827" vector-effect="non-scaling-stroke" d="
  M 947.99 659.97
  Q 946.32 663.11 948.22 660.44
  Q 948.31 660.31 948.35 660.16
  Q 948.75 658.54 947.99 659.97"
/>
<path stroke="#bfc2c0" stroke-opacity="0.933" vector-effect="non-scaling-stroke" d="
  M 720.12 656.82
  Q 720.83 660.94 720.57 657.09
  Q 720.56 656.94 720.50 656.81
  Q 719.94 655.77 720.12 656.82"
/>
</g>
<path fill="#ffffff" d="
  M 381.26 726.31
  L 380.90 727.73
  A 0.74 0.60 6.4 0 1 380.20 728.18
  Q 299.90 727.86 219.61 728.00
  Q 219.48 728.00 218.41 728.13
  Q 217.22 728.28 216.97 727.21
  A 0.93 0.92 -16.9 0 0 215.74 726.56
  L 181.45 739.29
  A 1.04 1.04 69.9 0 1 180.12 738.67
  L 122.74 584.04
  A 0.51 0.49 69.8 0 1 123.03 583.39
  L 216.45 548.68
  A 0.84 0.83 -10.1 0 0 217.00 547.90
  L 217.00 511.68
  A 0.68 0.68 0.0 0 1 217.68 511.00
  L 380.50 511.00
  A 0.50 0.50 0.0 0 1 381.00 511.50
  L 381.00 547.55
  A 1.54 1.54 9.6 0 0 382.03 549.00
  L 474.31 582.04
  A 0.54 0.54 -67.8 0 1 474.62 582.78
  Q 473.51 585.23 472.51 588.04
  Q 445.80 662.93 418.83 738.45
  A 0.66 0.65 18.9 0 1 418.00 738.85
  L 381.79 725.98
  A 0.46 0.40 -72.9 0 0 381.26 726.31
  Z
  M 371.50 521.04
  A 0.27 0.27 0.0 0 0 371.23 520.77
  L 226.77 520.77
  A 0.27 0.27 0.0 0 0 226.50 521.04
  L 226.50 679.10
  A 0.27 0.27 0.0 0 0 226.77 679.37
  L 371.23 679.37
  A 0.27 0.27 0.0 0 0 371.50 679.10
  L 371.50 521.04
  Z
  M 217.07 685.56
  Q 217.52 629.03 217.19 572.50
  Q 217.15 564.66 217.18 557.29
  A 0.57 0.57 -9.9 0 0 216.41 556.75
  L 132.45 587.77
  A 0.61 0.61 -20.2 0 0 132.09 588.55
  L 173.98 701.46
  A 0.73 0.72 69.3 0 0 174.91 701.89
  L 216.60 686.24
  A 0.75 0.72 80.9 0 0 217.07 685.56
  Z
  M 381.40 686.30
  L 423.71 701.26
  A 0.51 0.50 19.7 0 0 424.36 700.96
  L 465.08 587.22
  A 0.49 0.48 -70.5 0 0 464.79 586.59
  L 381.79 556.99
  A 0.59 0.59 -80.3 0 0 381.00 557.55
  L 381.00 685.73
  A 0.61 0.60 -80.5 0 0 381.40 686.30
  Z"
/>
<path fill="#ffffff" d="
  M 1022.42 539.06
  Q 1024.90 541.36 1021.95 542.46
  Q 1019.23 543.48 1016.47 544.35
  A 0.85 0.78 -29.9 0 1 1015.63 544.16
  Q 1013.98 542.47 1016.44 541.36
  Q 1018.87 540.26 1021.22 538.92
  A 1.02 1.02 51.6 0 1 1022.42 539.06
  Z"
/>
<path fill="#ffffff" d="
  M 647.2332 570.4761
  A 12.51 11.90 94.8 0 1 636.4217 557.0142
  A 12.51 11.90 94.8 0 1 649.3268 545.5439
  A 12.51 11.90 94.8 0 1 660.1383 559.0058
  A 12.51 11.90 94.8 0 1 647.2332 570.4761
  Z
  M 648.4483 567.4088
  A 9.44 7.56 89.1 0 0 655.8591 557.8513
  A 9.44 7.56 89.1 0 0 648.1517 548.5312
  A 9.44 7.56 89.1 0 0 640.7409 558.0887
  A 9.44 7.56 89.1 0 0 648.4483 567.4088
  Z"
/>
<path fill="#ffffff" d="
  M 754.7993 570.4615
  A 12.50 11.89 94.5 0 1 743.9267 557.0671
  A 12.50 11.89 94.5 0 1 756.7607 545.5385
  A 12.50 11.89 94.5 0 1 767.6333 558.9329
  A 12.50 11.89 94.5 0 1 754.7993 570.4615
  Z
  M 755.9383 567.4088
  A 9.44 7.56 89.1 0 0 763.3491 557.8513
  A 9.44 7.56 89.1 0 0 755.6417 548.5312
  A 9.44 7.56 89.1 0 0 748.2309 558.0887
  A 9.44 7.56 89.1 0 0 755.9383 567.4088
  Z"
/>
<path fill="#ffffff" d="
  M 802.06 563.89
  Q 799.23 558.63 802.41 552.04
  Q 805.07 546.54 811.25 545.75
  Q 815.87 545.16 820.84 546.97
  A 0.66 0.64 -77.4 0 1 821.26 547.65
  L 821.00 550.50
  Q 820.78 552.94 818.94 550.81
  Q 817.24 548.86 814.88 548.59
  Q 812.92 548.37 810.49 548.86
  Q 806.32 549.69 805.46 554.49
  Q 805.01 557.03 805.29 559.54
  Q 805.61 562.32 806.97 564.19
  Q 810.00 568.36 816.26 566.94
  A 1.17 1.17 88.5 0 0 817.16 565.99
  Q 817.86 561.99 814.74 561.55
  A 1.02 0.80 -4.6 0 1 814.01 561.07
  Q 813.27 559.50 815.69 559.82
  Q 818.19 560.15 823.00 559.75
  Q 823.97 559.67 823.85 560.75
  A 1.14 0.81 -17.7 0 1 823.31 561.47
  Q 821.22 562.72 821.67 566.80
  Q 821.87 568.58 820.24 569.31
  Q 815.15 571.58 809.75 569.91
  Q 804.39 568.24 802.06 563.89
  Z"
/>
<path fill="#ffffff" d="
  M 601.70 549.21
  L 595.60 548.77
  A 0.72 0.72 3.5 0 0 594.83 549.45
  L 594.53 555.19
  A 0.72 0.64 11.4 0 0 595.03 555.86
  Q 598.02 556.85 600.53 554.34
  Q 601.40 553.48 601.45 554.70
  Q 601.55 556.65 601.52 559.00
  Q 601.47 562.35 600.33 560.28
  A 2.64 2.61 -6.7 0 0 598.69 559.00
  Q 595.27 558.12 594.57 559.27
  Q 594.47 559.44 594.45 562.26
  Q 594.44 564.27 594.70 566.26
  Q 595.00 568.50 597.19 568.57
  A 0.93 0.73 -9.1 0 1 597.94 568.99
  Q 598.68 570.51 596.26 570.18
  Q 591.97 569.61 588.69 570.19
  Q 587.00 570.48 587.33 569.22
  A 0.87 0.65 -0.5 0 1 588.01 568.70
  Q 589.09 568.52 589.74 567.79
  Q 590.24 567.23 590.30 566.07
  Q 590.67 558.29 590.50 550.50
  Q 590.43 547.42 588.94 547.56
  Q 586.93 547.75 587.38 546.27
  A 0.75 0.60 6.5 0 1 588.07 545.84
  L 603.68 545.84
  A 0.66 0.57 -5.4 0 1 604.31 546.29
  Q 604.76 548.17 604.41 550.08
  A 1.05 0.96 83.1 0 1 603.88 550.82
  Q 602.53 551.49 602.24 549.80
  A 0.71 0.56 85.9 0 0 601.70 549.21
  Z"
/>
<path fill="#ffffff" d="
  M 704.05 549.81
  Q 703.65 564.08 704.25 566.75
  Q 704.68 568.66 706.95 568.60
  A 0.84 0.72 -12.5 0 1 707.70 569.00
  Q 708.41 570.40 706.26 570.18
  Q 701.75 569.73 697.25 570.19
  A 1.07 0.75 -17.8 0 1 696.38 569.92
  Q 695.94 569.41 696.43 568.88
  A 1.40 0.76 8.7 0 1 697.31 568.56
  Q 699.95 568.42 699.98 565.50
  Q 700.05 557.53 699.94 549.56
  A 0.66 0.66 -82.6 0 0 699.45 548.92
  Q 695.82 548.01 693.28 550.57
  A 1.11 0.71 -55.2 0 1 692.44 550.92
  Q 691.60 550.75 691.84 549.57
  Q 692.14 548.06 691.99 546.36
  A 0.59 0.59 88.7 0 1 692.61 545.71
  Q 702.12 546.29 711.46 545.72
  A 0.51 0.51 52.9 0 1 712.00 546.20
  Q 712.10 548.12 712.26 550.00
  Q 712.35 551.00 711.50 551.04
  A 1.14 0.77 63.0 0 1 710.70 550.60
  Q 708.29 547.59 704.52 549.11
  A 0.78 0.76 79.6 0 0 704.05 549.81
  Z"
/>
<path fill="#ffffff" d="
  M 863.18 560.79
  Q 862.66 563.01 863.25 565.25
  Q 864.07 568.34 865.25 568.50
  Q 866.68 568.70 866.19 569.76
  A 0.80 0.68 12.9 0 1 865.44 570.15
  Q 858.67 569.63 857.31 570.06
  Q 855.31 570.70 855.87 569.03
  A 0.81 0.67 6.0 0 1 856.56 568.57
  Q 857.64 568.51 858.29 567.76
  Q 858.74 567.23 858.81 566.11
  Q 859.32 557.78 858.71 548.91
  A 1.51 1.51 87.2 0 0 857.16 547.50
  Q 855.35 547.54 855.84 546.26
  A 0.75 0.65 10.7 0 1 856.56 545.84
  Q 862.69 546.19 866.00 546.00
  Q 874.38 545.53 874.41 552.58
  Q 874.42 554.93 873.21 556.65
  Q 871.92 558.47 869.84 559.55
  A 0.59 0.59 -30.9 0 0 869.62 560.41
  Q 871.43 563.04 873.26 565.24
  Q 875.35 567.75 878.57 568.40
  Q 879.91 568.67 879.43 569.76
  A 0.97 0.82 5.7 0 1 878.70 570.26
  Q 876.79 570.52 874.92 570.29
  Q 873.06 570.06 871.62 568.73
  Q 868.50 565.85 865.94 561.06
  Q 865.35 559.97 863.81 560.21
  A 0.77 0.77 2.2 0 0 863.18 560.79
  Z
  M 869.19 549.75
  Q 866.61 548.50 863.93 548.86
  A 0.70 0.57 -3.7 0 0 863.33 549.42
  L 863.12 556.17
  A 1.50 1.35 -0.9 0 0 864.71 557.55
  Q 871.33 557.16 870.46 551.48
  A 2.30 2.30 -81.3 0 0 869.19 549.75
  Z"
/>
<path fill="#ffffff" d="
  M 915.19 570.06
  Q 913.46 569.58 908.25 570.19
  A 0.98 0.70 -16.0 0 1 907.40 569.89
  Q 907.09 569.45 907.41 568.99
  Q 907.59 568.72 908.09 568.59
  Q 911.05 567.80 912.19 564.69
  Q 914.68 557.86 918.74 548.02
  Q 919.32 546.62 920.05 546.16
  Q 920.99 545.56 921.96 546.04
  Q 922.62 546.38 922.98 547.40
  Q 925.80 555.35 928.93 563.19
  Q 928.97 563.29 929.47 564.83
  Q 930.19 567.05 932.19 568.21
  Q 932.49 568.38 933.38 568.57
  Q 934.53 568.80 933.81 569.86
  A 1.05 0.71 11.0 0 1 933.01 570.20
  L 924.50 570.19
  A 1.11 0.60 -8.1 0 1 923.66 569.88
  Q 923.07 569.01 924.69 568.31
  A 1.52 1.51 -15.2 0 0 925.59 566.75
  Q 925.19 563.44 923.72 561.22
  A 0.95 0.92 73.0 0 0 922.94 560.79
  L 918.19 560.78
  A 1.32 1.26 -78.1 0 0 917.01 561.59
  Q 915.91 564.24 915.25 566.50
  Q 914.83 567.94 916.34 568.54
  A 1.16 0.80 7.9 0 1 917.00 569.14
  Q 917.51 570.70 915.19 570.06
  Z
  M 920.32 552.19
  L 918.41 557.44
  A 0.54 0.49 17.8 0 0 918.79 558.09
  Q 920.40 558.53 922.02 558.13
  A 0.49 0.48 -15.7 0 0 922.38 557.51
  L 920.57 552.20
  Q 920.45 551.84 920.32 552.19
  Z"
/>
<path fill="#fefefe" d="
  M 978.95 549.19
  Q 975.85 548.46 972.68 548.87
  A 0.68 0.59 -2.6 0 0 972.09 549.43
  L 971.78 554.79
  A 0.91 0.81 8.6 0 0 972.49 555.65
  Q 976.15 556.50 977.33 554.74
  A 0.94 0.33 -58.1 0 1 978.03 554.18
  Q 978.76 554.41 978.72 557.84
  Q 978.71 558.98 978.97 560.10
  Q 979.08 560.59 978.24 560.71
  A 0.83 0.67 67.4 0 1 977.50 560.31
  Q 975.74 557.48 972.28 558.64
  A 0.76 0.74 82.6 0 0 971.78 559.31
  Q 971.44 564.47 972.06 566.94
  Q 972.47 568.54 974.25 568.53
  A 1.19 0.77 -11.9 0 1 975.10 568.86
  Q 975.66 569.56 974.95 570.03
  Q 974.60 570.26 974.01 570.20
  Q 969.75 569.78 965.50 570.20
  A 0.90 0.62 -12.5 0 1 964.68 569.87
  Q 964.20 568.95 966.47 567.97
  A 1.79 1.79 80.4 0 0 967.54 566.46
  Q 968.11 558.00 967.54 549.53
  A 2.00 1.98 -83.6 0 0 966.15 547.77
  Q 964.29 547.21 964.58 546.25
  A 0.82 0.57 5.8 0 1 965.32 545.84
  L 980.93 545.84
  A 0.66 0.57 -5.4 0 1 981.56 546.29
  Q 982.01 548.17 981.66 550.08
  A 1.05 0.96 83.1 0 1 981.13 550.82
  Q 979.78 551.49 979.49 549.80
  A 0.76 0.71 -88.6 0 0 978.95 549.19
  Z"
/>
<path fill="#ffffff" d="
  M 1015.04 547.59
  Q 1013.49 547.70 1013.89 546.28
  A 0.72 0.58 6.2 0 1 1014.56 545.85
  L 1023.26 545.79
  A 1.00 0.57 -7.2 0 1 1024.07 546.13
  Q 1024.53 547.00 1022.48 547.82
  A 2.05 2.04 -9.0 0 0 1021.21 549.57
  Q 1020.65 558.00 1021.25 567.01
  A 1.54 1.53 87.6 0 0 1022.80 568.44
  Q 1024.67 568.41 1024.15 569.75
  A 0.80 0.60 7.4 0 1 1023.44 570.15
  L 1014.56 570.15
  A 0.70 0.44 -0.8 0 1 1013.87 569.73
  Q 1013.82 568.84 1016.13 567.56
  A 1.27 1.26 77.9 0 0 1016.78 566.54
  Q 1017.36 558.13 1016.74 549.07
  A 1.59 1.59 0.0 0 0 1015.04 547.59
  Z"
/>
<path fill="#ffffff" d="
  M 1062.76 568.14
  Q 1063.07 568.28 1063.38 568.42
  Q 1063.71 568.57 1063.91 568.81
  Q 1065.23 570.37 1063.00 570.25
  Q 1057.65 569.97 1055.25 570.19
  A 0.83 0.66 -14.2 0 1 1054.47 569.84
  Q 1053.95 568.86 1055.50 568.50
  Q 1057.48 568.04 1058.52 566.14
  Q 1058.53 566.13 1059.85 562.73
  Q 1062.93 554.78 1066.31 546.95
  A 1.68 1.34 -88.7 0 1 1066.92 546.22
  Q 1069.10 544.92 1070.00 547.50
  Q 1074.47 560.29 1077.56 566.94
  Q 1078.20 568.30 1080.00 568.47
  A 1.38 0.70 -3.7 0 1 1080.87 568.84
  Q 1081.29 569.35 1080.85 569.91
  A 1.17 0.63 9.2 0 1 1080.01 570.20
  L 1071.50 570.20
  A 1.22 0.50 -6.2 0 1 1070.60 569.94
  Q 1070.34 569.62 1070.51 569.18
  A 1.16 0.62 -8.0 0 1 1071.23 568.65
  Q 1071.99 568.42 1072.40 567.80
  Q 1072.72 567.31 1072.60 566.51
  Q 1072.28 564.27 1071.21 561.78
  A 1.67 1.59 77.5 0 0 1069.71 560.77
  L 1065.06 560.79
  A 0.93 0.88 -73.7 0 0 1064.29 561.24
  Q 1062.54 564.10 1062.33 567.44
  A 0.75 0.74 13.8 0 0 1062.76 568.14
  Z
  M 1067.27 552.27
  L 1065.35 557.51
  A 0.51 0.47 16.0 0 0 1065.73 558.13
  Q 1067.48 558.54 1069.21 558.08
  A 0.48 0.46 72.2 0 0 1069.51 557.46
  L 1067.68 552.30
  Q 1067.48 551.72 1067.27 552.27
  Z"
/>
<path fill="#fefefe" d="
  M 799.83 642.43
  Q 797.84 642.80 795.37 642.57
  Q 794.70 642.50 794.20 642.21
  Q 792.57 641.24 794.59 640.80
  Q 795.46 640.60 795.77 640.51
  Q 798.79 639.59 801.83 638.70
  A 1.11 1.10 4.2 0 0 802.52 638.11
  Q 806.17 630.01 811.01 622.57
  Q 815.86 615.13 824.50 613.00
  Q 827.85 612.17 828.44 613.81
  Q 829.19 615.94 826.80 616.18
  Q 819.88 616.88 815.32 622.06
  Q 809.52 628.67 806.03 636.68
  Q 805.44 638.04 806.89 637.77
  Q 812.59 636.73 818.24 636.19
  Q 819.86 636.04 819.36 636.65
  A 1.40 0.84 6.2 0 1 818.50 637.05
  Q 815.33 637.42 812.44 638.69
  Q 810.30 639.62 808.23 640.09
  Q 806.27 640.52 804.40 641.25
  A 1.12 1.07 89.8 0 0 803.77 641.91
  Q 801.26 649.02 798.70 656.11
  Q 794.39 668.07 792.89 680.68
  Q 792.78 681.60 792.47 681.84
  Q 791.91 682.28 790.89 681.08
  A 2.72 2.70 30.4 0 1 790.30 678.85
  Q 793.67 660.37 800.48 643.21
  Q 800.87 642.23 799.83 642.43
  Z"
/>
<path fill="#fefefe" d="
  M 1070.02 642.50
  Q 1068.29 642.85 1065.82 642.57
  Q 1065.18 642.50 1064.72 642.26
  Q 1063.12 641.45 1065.26 640.78
  Q 1068.24 639.85 1071.98 638.79
  A 1.86 1.84 -85.2 0 0 1073.16 637.78
  Q 1077.36 628.68 1082.86 621.10
  Q 1087.41 614.81 1095.57 612.86
  Q 1097.67 612.36 1099.03 614.05
  Q 1100.14 615.42 1098.15 616.16
  Q 1097.53 616.39 1096.19 616.51
  Q 1091.50 616.93 1089.31 618.81
  Q 1080.89 626.08 1076.45 637.03
  Q 1076.01 638.12 1077.16 637.89
  Q 1083.67 636.60 1089.25 636.25
  Q 1089.81 636.22 1090.03 636.46
  Q 1090.43 636.90 1089.70 637.00
  Q 1087.86 637.25 1086.05 637.61
  Q 1084.66 637.89 1082.60 638.85
  Q 1079.43 640.34 1076.11 640.71
  A 2.46 2.45 -83.8 0 0 1074.05 642.37
  Q 1072.83 645.94 1071.54 649.13
  Q 1065.24 664.66 1063.31 681.31
  Q 1063.02 683.83 1061.75 681.50
  Q 1060.86 679.87 1061.16 678.03
  Q 1064.00 660.56 1070.93 643.60
  Q 1071.50 642.20 1070.02 642.50
  Z"
/>
<path fill="#fefefe" d="
  M 891.75 630.04
  Q 890.71 628.62 889.75 629.96
  L 880.98 632.34
  Q 880.52 632.47 880.03 632.34
  Q 878.57 631.96 878.06 633.31
  Q 872.26 648.89 867.84 664.91
  Q 866.44 670.00 867.00 675.21
  A 0.84 0.84 -19.8 0 0 868.30 675.82
  Q 874.22 671.84 879.21 666.75
  Q 879.64 667.70 880.46 667.25
  Q 878.24 670.46 875.36 673.04
  Q 872.19 675.87 872.12 675.93
  Q 870.44 677.21 868.15 677.85
  A 1.37 1.36 -36.0 0 1 867.05 677.68
  Q 863.19 675.13 863.90 671.28
  Q 864.41 668.55 864.29 665.75
  Q 864.96 665.63 865.21 666.25
  Q 865.26 669.63 865.84 666.26
  Q 866.03 665.13 866.21 664.00
  L 867.04 660.25
  L 868.50 655.29
  L 874.04 638.00
  L 875.46 634.50
  Q 876.37 632.66 874.75 633.54
  Q 874.50 633.46 874.25 633.54
  Q 873.61 633.23 872.44 633.69
  Q 869.45 634.85 865.06 634.93
  A 0.73 0.70 -10.1 0 1 864.37 634.47
  Q 863.32 631.66 866.50 631.50
  Q 868.14 631.42 876.00 630.32
  A 0.81 0.61 -1.2 0 0 876.67 629.79
  Q 876.76 629.28 876.37 628.84
  A 0.92 0.67 39.4 0 1 876.16 628.03
  L 880.06 618.31
  Q 881.11 615.71 882.69 618.06
  Q 883.75 619.64 882.90 621.45
  Q 880.97 625.58 879.39 629.62
  Q 878.76 631.22 880.37 630.78
  L 892.14 627.55
  A 0.61 0.60 -2.3 0 1 892.91 628.24
  Q 892.57 629.86 891.75 630.04
  Z"
/>
<path fill="#777d79" fill-opacity="0.863" d="
  M 891.75 630.04
  Q 890.63 631.45 889.75 629.96
  Q 890.71 628.62 891.75 630.04
  Z"
/>
<path fill="#464142" fill-opacity="0.459" d="
  M 874.25 633.54
  Q 874.50 633.46 874.75 633.54
  Q 874.43 634.58 875.46 634.50
  L 874.04 638.00
  Q 874.09 637.63 873.75 637.46
  L 873.71 637.25
  Q 874.28 636.31 873.75 635.46
  Q 874.27 634.57 874.25 633.54
  Z"
/>
<path fill="#777d79" fill-opacity="0.863" d="
  M 873.75 635.46
  Q 874.28 636.31 873.71 637.25
  L 873.04 637.25
  Q 872.92 636.15 873.75 635.46
  Z"
/>
<path fill="#777d79" fill-opacity="0.863" d="
  M 873.04 637.25
  L 873.71 637.25
  L 873.75 637.46
  Q 869.27 646.96 873.04 637.25
  Z"
/>
<path fill="#ffffff" d="
  M 1099.85 640.23
  A 0.85 0.85 -44.5 0 1 1099.86 639.00
  Q 1103.46 635.64 1102.65 639.35
  Q 1102.41 640.44 1101.82 640.78
  Q 1100.95 641.28 1099.85 640.23
  Z"
/>
<path fill="#545059" fill-opacity="0.651" d="
  M 870.10 645.56
  Q 869.99 644.39 870.53 644.37
  A 0.44 0.35 -78.7 0 1 870.83 644.96
  Q 869.54 648.52 870.02 646.78
  Q 870.16 646.25 870.10 645.56
  Z"
/>
<path fill="#ffffff" d="
  M 621.96 669.25
  Q 622.16 669.72 621.92 670.10
  Q 621.67 670.47 622.06 670.35
  Q 623.18 670.02 622.71 668.50
  Q 630.17 661.54 635.26 652.68
  Q 636.86 649.91 637.50 646.74
  A 0.64 0.63 -65.3 0 1 638.51 646.36
  Q 639.54 647.17 639.74 648.38
  Q 639.86 649.12 639.45 650.58
  Q 636.40 661.55 632.72 672.31
  Q 628.59 684.35 627.39 687.32
  Q 624.38 694.73 620.11 701.54
  Q 616.79 706.83 610.75 708.50
  A 1.99 1.59 -16.5 0 1 608.44 707.56
  Q 608.08 706.48 609.26 706.65
  A 1.59 1.06 24.5 0 0 610.18 706.50
  Q 615.45 703.42 618.69 697.69
  Q 621.85 692.09 623.24 688.61
  Q 627.90 677.01 632.01 664.97
  Q 632.88 662.43 631.27 664.58
  Q 627.31 669.86 622.01 673.54
  Q 619.51 675.27 616.50 675.75
  Q 613.65 676.21 614.31 672.06
  Q 615.80 662.74 620.53 654.59
  Q 621.37 653.14 623.00 652.75
  Q 625.04 652.26 623.94 653.94
  Q 618.81 661.76 616.89 671.16
  Q 616.52 673.01 618.06 671.94
  L 621.96 669.25
  Z
  M 625.28 667.22
  Q 625.14 667.47 625.42 667.42
  Q 627.13 667.15 628.20 665.67
  Q 628.83 664.80 627.78 665.05
  Q 626.29 665.42 625.28 667.22
  Z"
/>
<path fill="#ffffff" d="
  M 525.55 661.50
  L 532.36 647.76
  A 1.39 1.07 -81.7 0 1 533.02 647.12
  Q 535.12 646.32 535.45 648.35
  Q 535.57 649.11 535.31 650.63
  Q 534.54 655.22 533.50 659.75
  Q 532.35 664.76 533.50 669.77
  Q 534.25 673.01 536.40 670.46
  Q 544.75 660.53 548.67 648.04
  A 0.81 0.73 -84.2 0 1 549.30 647.47
  Q 551.15 647.24 552.03 648.80
  A 1.37 1.10 -56.7 0 1 552.12 649.74
  Q 548.79 661.85 547.69 665.44
  Q 546.05 670.80 547.88 675.73
  A 0.86 0.85 83.5 0 0 548.56 676.28
  Q 550.20 676.50 551.75 675.79
  Q 552.19 675.58 551.89 675.95
  Q 549.27 679.16 546.19 676.56
  Q 543.91 674.64 543.86 671.47
  Q 543.84 670.20 543.68 668.66
  Q 543.53 667.06 544.06 665.81
  Q 544.85 663.99 544.47 662.53
  Q 544.34 662.02 544.08 662.51
  Q 541.25 667.79 537.57 672.28
  Q 536.28 673.84 534.49 672.91
  Q 532.18 671.71 531.07 669.81
  Q 530.20 668.34 530.08 665.53
  Q 529.86 660.58 531.16 655.72
  Q 531.38 654.87 530.84 655.01
  A 1.18 0.70 -73.6 0 0 530.22 655.59
  Q 528.50 658.83 527.29 662.31
  Q 525.81 666.56 523.50 670.43
  Q 521.95 673.03 521.31 675.74
  A 0.70 0.69 18.6 0 1 520.35 676.21
  Q 518.95 675.60 518.38 674.80
  Q 517.89 674.11 518.34 672.67
  Q 520.27 666.47 522.07 660.23
  Q 522.74 657.94 523.26 653.64
  Q 523.67 650.29 524.66 647.04
  A 1.26 0.98 -88.5 0 1 525.25 646.32
  Q 526.26 645.85 527.04 646.66
  Q 528.15 647.81 527.80 649.51
  L 525.39 661.45
  Q 525.26 662.09 525.55 661.50
  Z"
/>
<path fill="#ffffff" d="
  M 1094.76 676.82
  Q 1090.45 673.35 1091.24 668.00
  Q 1092.82 657.23 1097.05 647.21
  A 1.02 0.94 -82.7 0 1 1097.74 646.63
  Q 1101.13 645.96 1099.86 650.49
  Q 1099.20 652.86 1098.19 655.11
  Q 1095.33 661.51 1094.61 670.02
  Q 1094.37 672.79 1094.39 672.97
  Q 1094.57 674.69 1096.45 675.11
  A 1.08 0.98 -57.0 0 0 1097.32 674.88
  Q 1100.60 672.20 1102.78 668.55
  Q 1103.50 667.35 1103.21 668.37
  Q 1102.69 670.20 1102.16 672.05
  Q 1101.00 676.15 1097.34 677.31
  A 2.77 2.77 55.7 0 1 1094.76 676.82
  Z"
/>
<path fill="#fefefe" d="
  M 574.77 676.93
  Q 573.33 675.84 572.96 674.07
  Q 571.50 667.00 574.39 660.50
  A 5.56 5.50 -36.5 0 0 574.83 657.67
  Q 573.80 648.56 580.10 647.12
  Q 585.08 645.99 589.23 649.47
  Q 593.48 653.04 593.74 659.50
  A 0.93 0.61 -85.0 0 0 594.17 660.29
  L 595.26 660.69
  Q 595.60 660.81 595.31 660.98
  Q 593.79 661.90 593.51 663.75
  Q 591.75 675.01 580.83 678.11
  Q 577.55 679.04 574.77 676.93
  Z
  M 576.13 653.16
  Q 575.59 654.40 576.30 655.13
  A 0.42 0.32 -52.5 0 0 576.87 654.97
  L 579.18 651.21
  Q 579.65 650.44 578.85 650.72
  Q 576.89 651.39 576.13 653.16
  Z
  M 578.47 659.75
  Q 584.52 663.84 590.93 661.61
  A 2.22 2.22 78.8 0 0 592.42 659.38
  Q 592.00 652.56 585.50 651.08
  A 3.30 3.30 33.3 0 0 582.83 651.63
  Q 579.43 654.07 577.84 657.46
  A 1.84 1.83 29.7 0 0 578.47 659.75
  Z
  M 575.44 673.81
  Q 577.82 675.86 581.28 674.72
  Q 584.18 673.76 586.83 672.27
  Q 588.99 671.06 590.06 669.11
  Q 591.19 667.06 591.75 664.75
  Q 592.53 661.50 590.06 663.56
  Q 588.29 665.05 585.94 665.01
  Q 580.99 664.93 576.57 661.56
  A 0.45 0.45 -56.9 0 0 575.91 661.70
  Q 574.53 664.27 574.11 666.91
  Q 573.73 669.34 573.78 670.45
  Q 573.88 672.47 575.44 673.81
  Z"
/>
<path fill="#fefefe" d="
  M 771.30 660.33
  L 772.27 660.61
  Q 772.72 660.74 772.33 661.01
  Q 770.68 662.13 770.38 664.11
  Q 770.10 665.94 770.08 666.01
  Q 767.76 674.66 758.75 677.75
  Q 754.37 679.25 751.84 676.96
  Q 749.90 675.20 749.60 671.37
  Q 749.17 665.90 751.60 660.18
  Q 752.28 658.59 751.83 656.91
  Q 750.48 651.84 753.63 648.93
  Q 756.23 646.53 760.43 646.94
  Q 767.42 647.63 769.83 654.88
  Q 770.12 655.74 770.31 657.28
  Q 770.46 658.50 770.71 659.71
  A 0.85 0.81 2.7 0 0 771.30 660.33
  Z
  M 753.74 652.27
  Q 752.63 653.79 753.21 655.13
  Q 753.53 655.85 753.84 655.12
  Q 754.77 652.95 756.05 651.38
  Q 756.44 650.90 756.35 650.66
  Q 756.21 650.29 755.05 651.03
  Q 754.28 651.53 753.74 652.27
  Z
  M 755.51 659.90
  Q 762.08 663.91 768.79 661.22
  A 1.21 1.21 79.4 0 0 769.56 660.09
  Q 769.61 651.76 762.00 650.80
  A 1.58 1.57 33.9 0 0 761.06 650.98
  Q 756.40 653.44 754.78 657.77
  A 1.76 1.76 -64.0 0 0 755.51 659.90
  Z
  M 752.42 673.80
  Q 755.03 675.83 758.29 674.75
  Q 761.94 673.53 763.69 672.44
  Q 768.05 669.71 768.78 664.26
  Q 769.15 661.53 767.17 663.45
  Q 765.61 664.97 763.19 664.98
  Q 757.90 665.02 753.53 661.46
  A 0.44 0.43 32.7 0 0 752.86 661.60
  Q 750.87 665.59 750.75 670.27
  Q 750.69 672.46 752.42 673.80
  Z"
/>
<path fill="#ffffff" d="
  M 843.09 660.15
  Q 843.30 660.07 843.65 660.38
  A 0.40 0.36 -38.6 0 1 843.55 660.99
  Q 841.96 661.92 841.75 663.50
  Q 840.29 674.32 830.01 677.79
  Q 825.00 679.49 822.51 676.44
  Q 820.80 674.34 820.75 670.18
  Q 820.70 665.12 822.66 660.39
  Q 823.21 659.04 823.08 657.87
  Q 822.97 656.88 822.75 655.25
  Q 822.11 650.60 825.45 648.35
  Q 828.22 646.49 831.83 646.82
  Q 835.82 647.20 838.66 650.58
  Q 841.76 654.28 841.81 659.28
  A 0.95 0.95 -10.7 0 0 843.09 660.15
  Z
  M 825.37 651.65
  Q 823.94 653.81 824.49 655.08
  Q 824.70 655.57 824.98 655.06
  Q 825.91 653.36 827.12 651.86
  Q 828.06 650.69 826.98 650.74
  A 2.06 2.04 15.2 0 0 825.37 651.65
  Z
  M 826.58 659.65
  Q 833.30 664.16 839.98 661.15
  A 0.95 0.93 -7.8 0 0 840.53 660.44
  Q 841.72 653.13 834.38 650.97
  Q 832.80 650.51 831.45 651.44
  Q 827.32 654.29 825.99 657.84
  A 1.54 1.53 -63.1 0 0 826.58 659.65
  Z
  M 837.04 671.00
  Q 838.02 670.26 838.25 669.04
  Q 839.40 667.15 840.00 665.00
  Q 840.97 661.51 838.19 663.69
  Q 835.87 665.50 832.93 665.09
  Q 828.80 664.52 824.83 661.62
  A 0.45 0.45 -57.4 0 0 824.17 661.77
  Q 822.01 665.68 822.17 669.65
  Q 822.30 673.00 824.59 674.37
  Q 827.15 675.92 830.81 674.31
  Q 834.85 672.54 837.04 671.00
  Z"
/>
<path fill="#ffffff" d="
  M 924.06 660.27
  L 925.04 660.55
  Q 925.56 660.70 925.06 660.98
  Q 923.63 661.78 923.50 662.75
  Q 922.11 673.45 912.94 677.26
  Q 909.43 678.72 906.92 678.20
  Q 903.17 677.43 902.51 672.75
  Q 901.60 666.24 904.22 660.32
  A 4.65 4.64 53.5 0 0 904.58 657.90
  Q 903.33 647.57 911.37 646.90
  Q 914.95 646.61 917.79 648.47
  Q 920.75 650.41 922.23 653.84
  Q 922.69 654.92 922.98 656.72
  Q 923.21 658.21 923.47 659.69
  A 0.87 0.70 5.7 0 0 924.06 660.27
  Z
  M 906.13 652.65
  Q 905.28 653.83 905.94 654.85
  A 0.35 0.33 -45.0 0 0 906.51 654.83
  L 909.07 651.05
  Q 909.62 650.24 908.72 650.60
  Q 907.17 651.22 906.13 652.65
  Z
  M 908.03 659.62
  Q 914.70 664.08 921.31 661.33
  A 1.49 1.49 -10.4 0 0 922.23 660.00
  Q 922.50 652.43 915.51 650.95
  Q 913.88 650.60 912.55 651.61
  Q 908.88 654.36 907.49 657.89
  A 1.44 1.43 -62.6 0 0 908.03 659.62
  Z
  M 905.44 674.06
  Q 907.40 675.50 909.90 675.11
  Q 911.53 674.86 914.07 673.79
  Q 920.15 671.25 921.69 664.43
  Q 922.25 661.97 920.24 663.50
  Q 918.76 664.63 916.66 665.03
  Q 914.84 665.39 912.88 664.84
  Q 909.55 663.91 906.26 661.58
  A 0.46 0.45 31.4 0 0 905.60 661.74
  Q 904.39 664.02 903.93 666.48
  Q 903.44 669.13 903.49 670.39
  Q 903.58 672.70 905.44 674.06
  Z"
/>
<path fill="#fefefe" d="
  M 956.29 672.75
  Q 956.55 671.69 956.82 670.65
  Q 957.59 667.70 956.12 669.43
  A 1.36 0.94 70.4 0 0 955.88 670.32
  Q 955.98 671.70 954.89 672.34
  Q 952.82 675.50 949.65 675.84
  Q 947.01 676.13 945.26 673.81
  Q 942.59 670.27 944.25 665.75
  Q 947.20 657.73 952.63 651.14
  Q 956.72 646.16 962.50 648.00
  Q 965.56 648.97 964.60 652.57
  Q 963.77 655.71 961.18 657.48
  Q 960.73 657.78 960.26 657.85
  Q 958.77 658.08 959.69 656.69
  Q 961.07 654.58 961.76 653.03
  Q 962.36 651.70 962.07 650.39
  Q 961.38 647.37 958.52 650.03
  Q 951.35 656.68 947.81 665.81
  Q 946.37 669.53 947.22 673.06
  A 1.00 0.99 -21.6 0 0 948.68 673.69
  Q 954.84 670.20 958.93 664.43
  Q 960.40 662.36 961.22 664.39
  Q 961.53 665.13 961.30 666.14
  Q 960.51 669.68 959.64 673.20
  Q 959.62 673.30 958.49 678.33
  Q 956.26 688.23 950.06 698.31
  Q 947.69 702.18 944.83 704.57
  Q 941.90 707.01 938.57 706.60
  Q 934.37 706.07 931.83 702.12
  A 1.54 1.53 -59.8 0 1 931.59 701.20
  Q 932.22 691.64 933.56 701.95
  A 2.01 2.01 1.6 0 0 935.18 703.66
  Q 940.61 704.71 943.59 701.08
  Q 953.77 688.66 956.29 672.75
  Z
  M 947.99 659.97
  Q 946.32 663.11 948.22 660.44
  Q 948.31 660.31 948.35 660.16
  Q 948.75 658.54 947.99 659.97
  Z
  M 943.25 703.75
  Q 942.19 703.61 941.60 704.27
  A 0.38 0.38 -60.7 0 0 941.77 704.88
  Q 942.91 705.22 943.25 703.75
  Q 947.37 700.80 948.86 695.98
  Q 949.05 695.36 948.69 695.88
  L 943.25 703.75
  Z"
/>
<path fill="#fefefe" d="
  M 993.50 656.21
  Q 993.73 656.27 993.79 656.50
  Q 991.18 660.71 989.02 665.16
  Q 988.26 666.73 989.26 665.49
  Q 990.04 664.52 990.72 663.46
  Q 991.54 662.18 991.54 663.50
  Q 988.12 669.57 986.19 676.23
  Q 985.56 678.39 984.24 675.72
  A 3.87 3.85 -54.0 0 1 983.88 673.40
  Q 985.84 660.97 990.51 648.41
  A 0.68 0.61 -75.3 0 1 991.18 647.97
  Q 992.81 648.19 993.51 649.72
  A 1.38 1.02 -53.0 0 1 993.50 650.65
  L 991.31 656.31
  Q 989.82 660.19 992.56 657.06
  Q 992.98 656.58 993.50 656.21
  Z"
/>
<path fill="#fefefe" d="
  M 1000.75 652.21
  Q 999.36 651.26 1000.81 650.79
  A 0.84 0.57 -6.9 0 0 1001.34 650.33
  Q 1001.53 649.69 1000.50 650.29
  Q 999.88 650.40 999.51 649.29
  Q 1000.53 647.69 1002.56 647.94
  Q 1005.21 648.26 1003.69 650.69
  L 1001.55 654.10
  A 0.53 0.34 -49.7 0 1 1000.83 654.32
  Q 1000.69 654.08 1001.06 653.54
  Q 1001.72 652.60 1000.75 652.21
  Z"
/>
<path fill="#fefefe" d="
  M 719.36 652.94
  Q 717.41 655.24 714.44 660.69
  Q 709.92 668.96 704.36 678.05
  A 1.32 1.31 -63.8 0 1 702.78 678.59
  Q 700.62 677.79 699.88 676.02
  Q 699.39 674.85 699.78 672.46
  Q 701.61 661.16 705.69 650.42
  A 1.10 1.09 19.4 0 1 707.05 649.77
  Q 710.06 650.72 708.76 653.97
  Q 704.76 663.94 702.78 674.51
  Q 702.46 676.23 703.47 675.57
  Q 703.78 675.37 704.03 674.93
  Q 704.97 673.32 705.95 671.75
  Q 706.92 670.20 707.71 668.51
  Q 711.76 659.93 717.30 652.24
  Q 718.70 650.29 719.90 649.43
  Q 723.01 647.22 723.61 651.26
  Q 723.81 652.57 723.39 654.71
  Q 722.22 660.80 722.39 667.01
  Q 722.47 669.88 723.39 671.31
  Q 725.40 674.44 729.22 669.50
  Q 730.76 667.50 730.02 669.92
  Q 729.31 672.23 725.93 673.76
  Q 724.41 674.45 723.07 673.44
  Q 718.68 670.16 719.03 664.94
  Q 719.24 661.64 719.24 661.54
  Q 719.26 657.29 719.64 653.06
  Q 719.69 652.55 719.36 652.94
  Z
  M 720.12 656.82
  Q 720.83 660.94 720.57 657.09
  Q 720.56 656.94 720.50 656.81
  Q 719.94 655.77 720.12 656.82
  Z"
/>
<path fill="#fefefe" d="
  M 672.14 665.96
  Q 670.88 667.68 669.69 670.44
  Q 667.33 675.91 661.54 678.02
  A 1.17 1.07 -39.3 0 1 660.62 677.97
  Q 658.11 676.67 658.00 674.50
  Q 657.34 661.39 666.51 652.27
  Q 669.67 649.13 674.04 648.99
  Q 674.81 648.97 675.91 649.32
  Q 677.12 649.71 677.79 649.65
  Q 680.26 649.46 679.32 651.75
  Q 675.94 660.05 675.33 668.10
  Q 675.19 669.99 675.47 670.88
  Q 676.16 673.12 678.90 671.61
  Q 680.25 670.87 681.78 669.93
  Q 682.67 669.38 682.10 670.25
  Q 680.19 673.19 676.98 674.34
  A 0.92 0.90 -35.1 0 1 676.11 674.20
  Q 672.24 671.14 672.41 666.07
  Q 672.43 665.56 672.14 665.96
  Z
  M 662.89 662.61
  Q 660.10 668.61 660.53 675.44
  A 0.40 0.40 -10.2 0 0 661.05 675.80
  Q 663.86 674.91 665.44 672.94
  Q 672.92 663.62 675.79 651.84
  Q 676.16 650.32 674.75 651.00
  Q 670.83 652.89 667.75 655.82
  Q 664.68 658.74 662.89 662.61
  Z"
/>
<path fill="#fefefe" d="
  M 1033.43 666.04
  Q 1031.12 674.23 1023.64 677.97
  A 1.17 1.14 -47.2 0 1 1022.71 678.02
  Q 1019.94 676.98 1019.75 674.50
  Q 1018.67 660.70 1029.30 651.54
  Q 1030.94 650.13 1032.56 649.48
  Q 1034.99 648.50 1036.50 649.00
  Q 1038.52 649.67 1039.38 649.63
  Q 1041.98 649.50 1041.02 651.91
  Q 1038.47 658.33 1037.51 664.20
  Q 1037.00 667.31 1036.97 667.79
  Q 1036.88 669.64 1037.57 671.45
  A 1.53 1.47 -24.9 0 0 1039.70 672.18
  L 1043.79 669.96
  Q 1044.30 669.69 1043.99 670.18
  Q 1042.08 673.15 1038.72 674.34
  A 0.93 0.93 53.5 0 1 1037.85 674.21
  Q 1034.03 671.34 1034.25 666.75
  Q 1034.28 666.03 1034.01 665.75
  A 0.43 0.32 -63.1 0 0 1033.43 666.04
  Z
  M 1036.63 651.14
  Q 1021.87 658.01 1022.06 675.21
  Q 1022.08 676.66 1023.32 675.90
  Q 1024.83 674.98 1026.40 673.62
  Q 1027.77 672.43 1028.93 670.76
  Q 1034.88 662.19 1037.59 651.95
  Q 1037.97 650.52 1036.63 651.14
  Z"
/>
<path fill="#fefefe" d="
  M 1135.13 666.03
  Q 1134.14 668.53 1132.92 670.93
  Q 1130.33 676.08 1124.96 678.08
  A 1.03 1.03 -39.9 0 1 1124.06 678.00
  Q 1121.59 676.48 1121.50 674.50
  Q 1120.88 660.60 1130.78 651.79
  Q 1132.88 649.93 1134.68 649.39
  Q 1136.96 648.70 1139.45 649.26
  Q 1140.92 649.60 1141.63 649.58
  A 1.33 1.32 -80.0 0 1 1142.89 651.39
  Q 1139.80 659.25 1138.85 667.26
  Q 1138.64 669.02 1139.03 670.90
  Q 1139.49 673.09 1141.52 672.15
  Q 1143.44 671.26 1145.14 669.88
  Q 1145.56 669.53 1145.69 669.90
  A 0.79 0.53 -43.6 0 1 1145.55 670.54
  Q 1143.60 673.22 1140.48 674.34
  A 0.95 0.93 -36.0 0 1 1139.60 674.21
  Q 1135.79 671.32 1136.00 666.75
  Q 1136.03 666.03 1135.76 665.75
  A 0.47 0.34 -60.0 0 0 1135.13 666.03
  Z
  M 1125.52 675.55
  Q 1126.83 674.93 1128.34 673.53
  Q 1129.45 672.51 1130.57 670.91
  Q 1136.74 662.11 1139.22 652.58
  Q 1139.88 650.05 1137.62 651.35
  Q 1124.56 658.85 1123.69 674.32
  A 1.28 1.28 -11.1 0 0 1125.52 675.55
  Z"
/>
<path fill="#ffffff" d="
  M 999.51 649.29
  Q 999.88 650.40 1000.50 650.29
  L 993.79 656.50
  Q 993.73 656.27 993.50 656.21
  Q 993.85 654.46 994.44 653.94
  Q 997.00 651.64 999.51 649.29
  Z"
/>
<path fill="#f6f5f2" fill-opacity="0.980" d="
  M 1000.29 652.25
  L 992.25 662.04
  Q 991.38 661.91 991.98 661.01
  Q 995.17 656.21 999.30 652.19
  Q 999.54 651.96 999.77 651.96
  Q 1000.10 651.96 1000.29 652.25
  Z"
/>
<path fill="#464142" fill-opacity="0.459" d="
  M 868.50 655.29
  L 867.04 660.25
  Q 866.89 659.71 866.29 659.50
  Q 867.30 658.86 867.29 657.50
  L 867.49 655.06
  Q 867.50 654.90 867.52 655.07
  Q 867.59 655.66 868.50 655.29
  Z"
/>
<path fill="#777d79" fill-opacity="0.863" d="
  M 720.12 656.82
  Q 719.94 655.77 720.50 656.81
  Q 720.56 656.94 720.57 657.09
  Q 720.83 660.94 720.12 656.82
  Z"
/>
<path fill="#abaca0" fill-opacity="0.933" d="
  M 883.79 662.25
  Q 883.62 661.91 883.25 661.96
  Q 885.10 659.84 887.00 657.78
  Q 887.07 657.69 887.40 657.16
  Q 887.58 656.87 887.84 656.87
  Q 888.39 656.86 887.99 657.34
  L 883.79 662.25
  Z"
/>
<path fill="#545059" fill-opacity="0.651" d="
  M 867.29 657.50
  Q 867.30 658.86 866.29 659.50
  Q 865.82 657.75 867.29 657.50
  Z"
/>
<path fill="#545059" fill-opacity="0.651" d="
  M 947.99 659.97
  Q 948.75 658.54 948.35 660.16
  Q 948.31 660.31 948.22 660.44
  Q 946.32 663.11 947.99 659.97
  Z"
/>
<path fill="#abaca0" fill-opacity="0.933" d="
  M 865.96 663.50
  L 865.50 663.79
  Q 865.13 663.52 865.21 663.00
  Q 866.52 657.27 865.96 663.50
  Z"
/>
<path fill="#f6f5f2" fill-opacity="0.980" d="
  M 883.25 661.96
  Q 883.62 661.91 883.79 662.25
  L 880.46 667.25
  Q 879.64 667.70 879.21 666.75
  L 883.25 661.96
  Z"
/>
<path fill="#abaca0" fill-opacity="0.933" d="
  M 865.21 663.00
  Q 865.13 663.52 865.50 663.79
  L 865.21 666.25
  Q 864.96 665.63 864.29 665.75
  L 865.21 663.00
  Z"
/>
<path fill="#545059" fill-opacity="0.651" d="
  M 865.96 663.50
  Q 865.91 663.85 866.21 664.00
  Q 866.03 665.13 865.84 666.26
  Q 865.26 669.63 865.21 666.25
  L 865.50 663.79
  L 865.96 663.50
  Z"
/>
<path fill="#464142" fill-opacity="0.459" d="
  M 622.71 668.50
  Q 623.18 670.02 622.06 670.35
  Q 621.67 670.47 621.92 670.10
  Q 622.16 669.72 621.96 669.25
  Q 622.23 668.77 622.71 668.50
  Z"
/>
</svg>
