<svg xmlns="http://www.w3.org/2000/svg" xmlns:xlink="http://www.w3.org/1999/xlink" width="500" zoomAndPan="magnify" viewBox="0 0 375 374.999991" height="500" preserveAspectRatio="xMidYMid meet" version="1.0"><defs><clipPath id="908cd4087d"><path d="M 37 115 L 182 115 L 182 260 L 37 260 Z M 37 115 " clip-rule="nonzero"/></clipPath><clipPath id="eb4181c5a8"><path d="M 37.5 153.695312 L 143.316406 115.492188 L 181.519531 221.304688 L 75.703125 259.507812 Z M 37.5 153.695312 " clip-rule="nonzero"/></clipPath><clipPath id="52322dbc00"><path d="M 37.5 153.695312 L 143.316406 115.492188 L 181.519531 221.304688 L 75.703125 259.507812 Z M 37.5 153.695312 " clip-rule="nonzero"/></clipPath><clipPath id="ab0d68c9d2"><path d="M 193 115 L 338 115 L 338 260 L 193 260 Z M 193 115 " clip-rule="nonzero"/></clipPath><clipPath id="f29cc854c9"><path d="M 231.820312 115.257812 L 337.5 153.828125 L 298.929688 259.507812 L 193.246094 220.9375 Z M 231.820312 115.257812 " clip-rule="nonzero"/></clipPath><clipPath id="80b4bdd704"><path d="M 231.820312 115.257812 L 337.5 153.828125 L 298.929688 259.507812 L 193.246094 220.9375 Z M 231.820312 115.257812 " clip-rule="nonzero"/></clipPath><clipPath id="5f76c37466"><path d="M 29 110 L 189 110 L 189 291 L 29 291 Z M 29 110 " clip-rule="nonzero"/></clipPath><clipPath id="1aa30eebb7"><path d="M 29.253906 149.707031 L 136.136719 110.058594 L 188.304688 250.695312 L 81.417969 290.34375 Z M 29.253906 149.707031 " clip-rule="nonzero"/></clipPath><clipPath id="fa16a26815"><path d="M 29.253906 149.707031 L 136.136719 110.058594 L 188.304688 250.695312 L 81.417969 290.34375 Z M 29.253906 149.707031 " clip-rule="nonzero"/></clipPath><clipPath id="a212359599"><path d="M 29.253906 149.707031 L 136.136719 110.058594 L 188.304688 250.695312 L 81.417969 290.34375 Z M 29.253906 149.707031 " clip-rule="nonzero"/></clipPath><clipPath id="50871acde0"><path d="M 188 110 L 346 110 L 346 290 L 188 290 Z M 188 110 " clip-rule="nonzero"/></clipPath><clipPath id="291edc8731"><path d="M 238.558594 110.125 L 345.921875 148.453125 L 295.492188 289.71875 L 188.128906 251.390625 Z M 238.558594 110.125 " clip-rule="nonzero"/></clipPath><clipPath id="a7e8dc6268"><path d="M 238.558594 110.125 L 345.921875 148.453125 L 295.492188 289.71875 L 188.128906 251.390625 Z M 238.558594 110.125 " clip-rule="nonzero"/></clipPath><clipPath id="85205a9e86"><path d="M 238.558594 110.125 L 345.921875 148.453125 L 295.492188 289.71875 L 188.128906 251.390625 Z M 238.558594 110.125 " clip-rule="nonzero"/></clipPath><clipPath id="ead0560420"><path d="M 119.480469 90.613281 L 254.449219 90.613281 L 254.449219 271.292969 L 119.480469 271.292969 Z M 119.480469 90.613281 " clip-rule="nonzero"/></clipPath><clipPath id="8c74bab8ea"><path d="M 114.148438 84.65625 L 261.898438 84.65625 L 261.898438 279.65625 L 114.148438 279.65625 Z M 114.148438 84.65625 " clip-rule="nonzero"/></clipPath></defs><g clip-path="url(#908cd4087d)"><g clip-path="url(#eb4181c5a8)"><g clip-path="url(#52322dbc00)"><path fill="#101010" d="M 37.5 153.695312 L 143.316406 115.492188 L 181.519531 221.304688 L 75.703125 259.507812 Z M 37.5 153.695312 " fill-opacity="1" fill-rule="nonzero"/></g></g></g><g clip-path="url(#ab0d68c9d2)"><g clip-path="url(#f29cc854c9)"><g clip-path="url(#80b4bdd704)"><path fill="#101010" d="M 231.820312 115.257812 L 337.5 153.828125 L 298.929688 259.507812 L 193.246094 220.9375 Z M 231.820312 115.257812 " fill-opacity="1" fill-rule="nonzero"/></g></g></g><g clip-path="url(#5f76c37466)"><g clip-path="url(#1aa30eebb7)"><g clip-path="url(#fa16a26815)"><g clip-path="url(#a212359599)"><path fill="#ffffff" d="M 136.105469 110.070312 L 29.285156 149.691406 L 81.453125 290.328125 L 188.269531 250.707031 Z M 132.15625 119.015625 L 38.109375 153.898438 L 76.054688 256.191406 L 170.101562 221.308594 Z M 132.15625 119.015625 " fill-opacity="1" fill-rule="evenodd"/></g></g></g></g><g clip-path="url(#50871acde0)"><g clip-path="url(#291edc8731)"><g clip-path="url(#a7e8dc6268)"><g clip-path="url(#85205a9e86)"><path fill="#ffffff" d="M 345.890625 148.441406 L 238.59375 110.136719 L 188.160156 251.40625 L 295.457031 289.707031 Z M 337.117188 152.753906 L 242.648438 119.03125 L 205.96875 221.78125 L 300.4375 255.507812 Z M 337.117188 152.753906 " fill-opacity="1" fill-rule="evenodd"/></g></g></g></g><g clip-path="url(#ead0560420)"><path fill="#101010" d="M 119.480469 90.613281 L 254.832031 90.613281 L 254.832031 271.667969 L 119.480469 271.667969 Z M 119.480469 90.613281 " fill-opacity="1" fill-rule="nonzero"/></g><g clip-path="url(#8c74bab8ea)"><path fill="#ffffff" d="M 261.855469 84.65625 L 114.191406 84.65625 L 114.191406 279.660156 L 261.855469 279.660156 Z M 253.027344 93.773438 L 123.019531 93.773438 L 123.019531 235.609375 L 253.027344 235.609375 Z M 253.027344 93.773438 " fill-opacity="1" fill-rule="evenodd"/></g></svg>